M48
; DRILL file {KiCad (6.0.6)} date Sun Jun 26 22:05:00 2022
; FORMAT={-:-/ absolute / inch / decimal}
; #@! TF.CreationDate,2022-06-26T22:05:00-07:00
; #@! TF.GenerationSoftware,Kicad,Pcbnew,(6.0.6)
; #@! TF.FileFunction,MixedPlating,1,2
FMAT,2
INCH
; #@! TA.AperFunction,Plated,PTH,ComponentDrill
T1C0.0295
; #@! TA.AperFunction,Plated,PTH,ComponentDrill
T2C0.0350
; #@! TA.AperFunction,Plated,PTH,ComponentDrill
T3C0.0400
; #@! TA.AperFunction,Plated,PTH,ComponentDrill
T4C0.0650
; #@! TA.AperFunction,NonPlated,NPTH,ComponentDrill
T5C0.1280
%
G90
G05
T1
X3.0079Y-1.4626
X3.0079Y-1.7382
X3.0079Y-2.0138
X3.0866Y-1.4626
X3.0866Y-1.7382
X3.0866Y-2.0138
X3.2933Y-1.4626
X3.2933Y-1.7382
X3.2933Y-2.0138
X3.372Y-1.4626
X3.372Y-1.7382
X3.372Y-2.0138
X3.5787Y-1.4626
X3.5787Y-1.7382
X3.5787Y-2.0138
X3.6575Y-1.4626
X3.6575Y-1.7382
X3.6575Y-2.0138
T2
X2.3417Y-1.5705
X2.3917Y-1.4705
X2.4417Y-1.5705
X2.4917Y-1.4705
X2.5417Y-1.5705
X2.5917Y-1.4705
X2.6417Y-1.5705
X2.6917Y-1.4705
T3
X2.2677Y-1.9825
X2.3667Y-1.9825
X2.6657Y-1.9825
X2.7647Y-1.9825
T4
X2.2067Y-1.6675
X2.8267Y-1.6675
T5
X2.2917Y-1.8205
X2.7417Y-1.8205
T0
M30
