%TF.GenerationSoftware,KiCad,Pcbnew,(6.0.6)*%
%TF.CreationDate,2022-06-26T22:04:57-07:00*%
%TF.ProjectId,KnightPCB,4b6e6967-6874-4504-9342-2e6b69636164,rev?*%
%TF.SameCoordinates,Original*%
%TF.FileFunction,Copper,L2,Bot*%
%TF.FilePolarity,Positive*%
%FSLAX46Y46*%
G04 Gerber Fmt 4.6, Leading zero omitted, Abs format (unit mm)*
G04 Created by KiCad (PCBNEW (6.0.6)) date 2022-06-26 22:04:57*
%MOMM*%
%LPD*%
G01*
G04 APERTURE LIST*
G04 Aperture macros list*
%AMRoundRect*
0 Rectangle with rounded corners*
0 $1 Rounding radius*
0 $2 $3 $4 $5 $6 $7 $8 $9 X,Y pos of 4 corners*
0 Add a 4 corners polygon primitive as box body*
4,1,4,$2,$3,$4,$5,$6,$7,$8,$9,$2,$3,0*
0 Add four circle primitives for the rounded corners*
1,1,$1+$1,$2,$3*
1,1,$1+$1,$4,$5*
1,1,$1+$1,$6,$7*
1,1,$1+$1,$8,$9*
0 Add four rect primitives between the rounded corners*
20,1,$1+$1,$2,$3,$4,$5,0*
20,1,$1+$1,$4,$5,$6,$7,0*
20,1,$1+$1,$6,$7,$8,$9,0*
20,1,$1+$1,$8,$9,$2,$3,0*%
G04 Aperture macros list end*
%TA.AperFunction,ComponentPad*%
%ADD10O,1.200000X1.750000*%
%TD*%
%TA.AperFunction,ComponentPad*%
%ADD11RoundRect,0.250000X-0.350000X-0.625000X0.350000X-0.625000X0.350000X0.625000X-0.350000X0.625000X0*%
%TD*%
%TA.AperFunction,ComponentPad*%
%ADD12R,1.778000X1.778000*%
%TD*%
%TA.AperFunction,ComponentPad*%
%ADD13C,1.778000*%
%TD*%
%TA.AperFunction,ComponentPad*%
%ADD14C,2.032000*%
%TD*%
%TA.AperFunction,ComponentPad*%
%ADD15C,2.540000*%
%TD*%
%TA.AperFunction,Conductor*%
%ADD16C,0.250000*%
%TD*%
G04 APERTURE END LIST*
D10*
%TO.P,J4,2,Pin_2*%
%TO.N,Net-(J4-Pad2)*%
X78400000Y-44150000D03*
D11*
%TO.P,J4,1,Pin_1*%
%TO.N,Net-(J5A1-Pad1)*%
X76400000Y-44150000D03*
%TD*%
%TO.P,J2,1,Pin_1*%
%TO.N,Net-(J5A1-Pad1)*%
X83650000Y-37150000D03*
D10*
%TO.P,J2,2,Pin_2*%
%TO.N,Net-(J2-Pad2)*%
X85650000Y-37150000D03*
%TD*%
D12*
%TO.P,R1,1*%
%TO.N,Net-(J5A1-Pad2)*%
X59480000Y-39890000D03*
D13*
%TO.P,R1,2*%
%TO.N,Net-(J4-Pad2)*%
X60750000Y-37350000D03*
%TO.P,R1,3*%
%TO.N,Net-(J3-Pad2)*%
X62020000Y-39890000D03*
%TO.P,R1,4*%
%TO.N,Net-(J2-Pad2)*%
X63290000Y-37350000D03*
%TO.P,R1,5*%
%TO.N,Net-(J1-Pad2)*%
X64560000Y-39890000D03*
%TO.P,R1,6*%
%TO.N,Net-(J5A1-Pad1)*%
X65830000Y-37350000D03*
%TO.P,R1,7*%
%TO.N,Net-(J6-Pad2)*%
X67100000Y-39890000D03*
%TO.P,R1,8*%
%TO.N,Net-(J6-Pad1)*%
X68370000Y-37350000D03*
D14*
%TO.P,R1,9*%
%TO.N,unconnected-(R1-Pad9)*%
X70224200Y-50354800D03*
%TO.P,R1,10*%
%TO.N,unconnected-(R1-Pad10)*%
X67709600Y-50354800D03*
%TO.P,R1,11*%
%TO.N,unconnected-(R1-Pad11)*%
X60115000Y-50354800D03*
%TO.P,R1,12*%
%TO.N,unconnected-(R1-Pad12)*%
X57600400Y-50354800D03*
D15*
%TO.P,R1,SH*%
%TO.N,unconnected-(R1-PadSH)*%
X71799000Y-42353800D03*
X56051000Y-42353800D03*
%TD*%
D10*
%TO.P,J1,2,Pin_2*%
%TO.N,Net-(J1-Pad2)*%
X78400000Y-37150000D03*
D11*
%TO.P,J1,1,Pin_1*%
%TO.N,Net-(J5A1-Pad1)*%
X76400000Y-37150000D03*
%TD*%
%TO.P,J6,1,Pin_1*%
%TO.N,Net-(J6-Pad1)*%
X90900000Y-37150000D03*
D10*
%TO.P,J6,2,Pin_2*%
%TO.N,Net-(J6-Pad2)*%
X92900000Y-37150000D03*
%TD*%
D11*
%TO.P,J5D1,1,Pin_1*%
%TO.N,Net-(J5A1-Pad1)*%
X90900000Y-44150000D03*
D10*
%TO.P,J5D1,2,Pin_2*%
%TO.N,Net-(J5A1-Pad2)*%
X92900000Y-44150000D03*
%TD*%
D11*
%TO.P,J5C1,1,Pin_1*%
%TO.N,Net-(J5A1-Pad1)*%
X90900000Y-51150000D03*
D10*
%TO.P,J5C1,2,Pin_2*%
%TO.N,Net-(J5A1-Pad2)*%
X92900000Y-51150000D03*
%TD*%
D11*
%TO.P,J5B1,1,Pin_1*%
%TO.N,Net-(J5A1-Pad1)*%
X83650000Y-51150000D03*
D10*
%TO.P,J5B1,2,Pin_2*%
%TO.N,Net-(J5A1-Pad2)*%
X85650000Y-51150000D03*
%TD*%
%TO.P,J5A1,2,Pin_2*%
%TO.N,Net-(J5A1-Pad2)*%
X78400000Y-51150000D03*
D11*
%TO.P,J5A1,1,Pin_1*%
%TO.N,Net-(J5A1-Pad1)*%
X76400000Y-51150000D03*
%TD*%
%TO.P,J3,1,Pin_1*%
%TO.N,Net-(J5A1-Pad1)*%
X83650000Y-44150000D03*
D10*
%TO.P,J3,2,Pin_2*%
%TO.N,Net-(J3-Pad2)*%
X85650000Y-44150000D03*
%TD*%
D16*
%TO.N,Net-(J6-Pad2)*%
X90160000Y-39890000D02*
X92900000Y-37150000D01*
X67100000Y-39890000D02*
X90160000Y-39890000D01*
%TO.N,Net-(J1-Pad2)*%
X65274000Y-38676000D02*
X76874000Y-38676000D01*
X64560000Y-39810000D02*
X64350000Y-39600000D01*
X64560000Y-39890000D02*
X64560000Y-39810000D01*
X64350000Y-39600000D02*
X65274000Y-38676000D01*
X76874000Y-38676000D02*
X78400000Y-37150000D01*
%TO.N,Net-(J3-Pad2)*%
X65982048Y-48240601D02*
X81559399Y-48240601D01*
X62020000Y-44278553D02*
X65982048Y-48240601D01*
X81559399Y-48240601D02*
X85650000Y-44150000D01*
X62020000Y-39890000D02*
X62020000Y-44278553D01*
%TO.N,Net-(J4-Pad2)*%
X77200000Y-45350000D02*
X78400000Y-44150000D01*
X74272109Y-44200000D02*
X75422109Y-45350000D01*
X63346000Y-40392856D02*
X67153144Y-44200000D01*
X61196856Y-37350000D02*
X63346000Y-39499144D01*
X67153144Y-44200000D02*
X74272109Y-44200000D01*
X75422109Y-45350000D02*
X77200000Y-45350000D01*
X60750000Y-37350000D02*
X61196856Y-37350000D01*
X63346000Y-39499144D02*
X63346000Y-40392856D01*
%TO.N,Net-(J5A1-Pad2)*%
X92900000Y-51150000D02*
X92900000Y-44150000D01*
X90875000Y-53175000D02*
X92900000Y-51150000D01*
X83525000Y-53175000D02*
X83625000Y-53175000D01*
X76375000Y-53175000D02*
X83525000Y-53175000D01*
X83525000Y-53175000D02*
X90875000Y-53175000D01*
X83625000Y-53175000D02*
X85650000Y-51150000D01*
X76375000Y-53175000D02*
X78400000Y-51150000D01*
X76350000Y-53200000D02*
X76375000Y-53175000D01*
X67450000Y-53200000D02*
X76350000Y-53200000D01*
X59480000Y-43080000D02*
X63850000Y-47450000D01*
X63850000Y-47450000D02*
X63850000Y-49600000D01*
X63850000Y-49600000D02*
X67450000Y-53200000D01*
X59480000Y-39890000D02*
X59480000Y-43080000D01*
%TO.N,Net-(J2-Pad2)*%
X83900000Y-35400000D02*
X85650000Y-37150000D01*
X65240000Y-35400000D02*
X83900000Y-35400000D01*
X63290000Y-37350000D02*
X65240000Y-35400000D01*
%TD*%
M02*
