%TF.GenerationSoftware,KiCad,Pcbnew,(6.0.6)*%
%TF.CreationDate,2022-06-23T13:36:09-07:00*%
%TF.ProjectId,KnightPCB,4b6e6967-6874-4504-9342-2e6b69636164,rev?*%
%TF.SameCoordinates,Original*%
%TF.FileFunction,Legend,Bot*%
%TF.FilePolarity,Positive*%
%FSLAX46Y46*%
G04 Gerber Fmt 4.6, Leading zero omitted, Abs format (unit mm)*
G04 Created by KiCad (PCBNEW (6.0.6)) date 2022-06-23 13:36:09*
%MOMM*%
%LPD*%
G01*
G04 APERTURE LIST*
%ADD10C,0.150000*%
%ADD11C,0.120000*%
G04 APERTURE END LIST*
D10*
%TO.C,J0+12v1*%
X99261904Y-50152380D02*
X99261904Y-50866666D01*
X99309523Y-51009523D01*
X99404761Y-51104761D01*
X99547619Y-51152380D01*
X99642857Y-51152380D01*
X98595238Y-50152380D02*
X98500000Y-50152380D01*
X98404761Y-50200000D01*
X98357142Y-50247619D01*
X98309523Y-50342857D01*
X98261904Y-50533333D01*
X98261904Y-50771428D01*
X98309523Y-50961904D01*
X98357142Y-51057142D01*
X98404761Y-51104761D01*
X98500000Y-51152380D01*
X98595238Y-51152380D01*
X98690476Y-51104761D01*
X98738095Y-51057142D01*
X98785714Y-50961904D01*
X98833333Y-50771428D01*
X98833333Y-50533333D01*
X98785714Y-50342857D01*
X98738095Y-50247619D01*
X98690476Y-50200000D01*
X98595238Y-50152380D01*
X97833333Y-50771428D02*
X97071428Y-50771428D01*
X97452380Y-51152380D02*
X97452380Y-50390476D01*
X96071428Y-51152380D02*
X96642857Y-51152380D01*
X96357142Y-51152380D02*
X96357142Y-50152380D01*
X96452380Y-50295238D01*
X96547619Y-50390476D01*
X96642857Y-50438095D01*
X95690476Y-50247619D02*
X95642857Y-50200000D01*
X95547619Y-50152380D01*
X95309523Y-50152380D01*
X95214285Y-50200000D01*
X95166666Y-50247619D01*
X95119047Y-50342857D01*
X95119047Y-50438095D01*
X95166666Y-50580952D01*
X95738095Y-51152380D01*
X95119047Y-51152380D01*
X94785714Y-50485714D02*
X94547619Y-51152380D01*
X94309523Y-50485714D01*
X93404761Y-51152380D02*
X93976190Y-51152380D01*
X93690476Y-51152380D02*
X93690476Y-50152380D01*
X93785714Y-50295238D01*
X93880952Y-50390476D01*
X93976190Y-50438095D01*
D11*
X96600000Y-55400000D02*
X96400000Y-55400000D01*
X99560000Y-53100000D02*
X98950000Y-53100000D01*
X94050000Y-52400000D02*
X96000000Y-52400000D01*
X98950000Y-52400000D02*
X98950000Y-55900000D01*
X93440000Y-53100000D02*
X94050000Y-53100000D01*
X97800000Y-51790000D02*
X97800000Y-51590000D01*
X97800000Y-51690000D02*
X98100000Y-51690000D01*
X97800000Y-51590000D02*
X98100000Y-51590000D01*
X99560000Y-51790000D02*
X99560000Y-56510000D01*
X96400000Y-55400000D02*
X96400000Y-55900000D01*
X98950000Y-55900000D02*
X94050000Y-55900000D01*
X97000000Y-51790000D02*
X97000000Y-52400000D01*
X98100000Y-51590000D02*
X98100000Y-51790000D01*
X93440000Y-51790000D02*
X99560000Y-51790000D01*
X96600000Y-55900000D02*
X96600000Y-55400000D01*
X93440000Y-54400000D02*
X94050000Y-54400000D01*
X93440000Y-56510000D02*
X93440000Y-51790000D01*
X97000000Y-52400000D02*
X98950000Y-52400000D01*
X96500000Y-55900000D02*
X96500000Y-55400000D01*
X99560000Y-56510000D02*
X93440000Y-56510000D01*
X96000000Y-52400000D02*
X96000000Y-51790000D01*
X99560000Y-54400000D02*
X98950000Y-54400000D01*
X98610000Y-51490000D02*
X99860000Y-51490000D01*
X99860000Y-51490000D02*
X99860000Y-52740000D01*
X94050000Y-55900000D02*
X94050000Y-52400000D01*
%TD*%
M02*
