%TF.GenerationSoftware,KiCad,Pcbnew,(6.0.6)*%
%TF.CreationDate,2022-06-23T13:36:09-07:00*%
%TF.ProjectId,KnightPCB,4b6e6967-6874-4504-9342-2e6b69636164,rev?*%
%TF.SameCoordinates,Original*%
%TF.FileFunction,Legend,Top*%
%TF.FilePolarity,Positive*%
%FSLAX46Y46*%
G04 Gerber Fmt 4.6, Leading zero omitted, Abs format (unit mm)*
G04 Created by KiCad (PCBNEW (6.0.6)) date 2022-06-23 13:36:09*
%MOMM*%
%LPD*%
G01*
G04 APERTURE LIST*
%ADD10C,0.150000*%
%ADD11C,0.120000*%
%ADD12C,0.127000*%
%ADD13C,0.200000*%
G04 APERTURE END LIST*
D10*
%TO.C,H5*%
X95788095Y-63552380D02*
X95788095Y-62552380D01*
X95788095Y-63028571D02*
X96359523Y-63028571D01*
X96359523Y-63552380D02*
X96359523Y-62552380D01*
X97311904Y-62552380D02*
X96835714Y-62552380D01*
X96788095Y-63028571D01*
X96835714Y-62980952D01*
X96930952Y-62933333D01*
X97169047Y-62933333D01*
X97264285Y-62980952D01*
X97311904Y-63028571D01*
X97359523Y-63123809D01*
X97359523Y-63361904D01*
X97311904Y-63457142D01*
X97264285Y-63504761D01*
X97169047Y-63552380D01*
X96930952Y-63552380D01*
X96835714Y-63504761D01*
X96788095Y-63457142D01*
%TO.C,J6*%
X131066666Y-51602380D02*
X131066666Y-52316666D01*
X131019047Y-52459523D01*
X130923809Y-52554761D01*
X130780952Y-52602380D01*
X130685714Y-52602380D01*
X131971428Y-51602380D02*
X131780952Y-51602380D01*
X131685714Y-51650000D01*
X131638095Y-51697619D01*
X131542857Y-51840476D01*
X131495238Y-52030952D01*
X131495238Y-52411904D01*
X131542857Y-52507142D01*
X131590476Y-52554761D01*
X131685714Y-52602380D01*
X131876190Y-52602380D01*
X131971428Y-52554761D01*
X132019047Y-52507142D01*
X132066666Y-52411904D01*
X132066666Y-52173809D01*
X132019047Y-52078571D01*
X131971428Y-52030952D01*
X131876190Y-51983333D01*
X131685714Y-51983333D01*
X131590476Y-52030952D01*
X131542857Y-52078571D01*
X131495238Y-52173809D01*
%TO.C,J5*%
X123366666Y-37602380D02*
X123366666Y-38316666D01*
X123319047Y-38459523D01*
X123223809Y-38554761D01*
X123080952Y-38602380D01*
X122985714Y-38602380D01*
X124319047Y-37602380D02*
X123842857Y-37602380D01*
X123795238Y-38078571D01*
X123842857Y-38030952D01*
X123938095Y-37983333D01*
X124176190Y-37983333D01*
X124271428Y-38030952D01*
X124319047Y-38078571D01*
X124366666Y-38173809D01*
X124366666Y-38411904D01*
X124319047Y-38507142D01*
X124271428Y-38554761D01*
X124176190Y-38602380D01*
X123938095Y-38602380D01*
X123842857Y-38554761D01*
X123795238Y-38507142D01*
%TO.C,J4*%
X131066666Y-37602380D02*
X131066666Y-38316666D01*
X131019047Y-38459523D01*
X130923809Y-38554761D01*
X130780952Y-38602380D01*
X130685714Y-38602380D01*
X131971428Y-37935714D02*
X131971428Y-38602380D01*
X131733333Y-37554761D02*
X131495238Y-38269047D01*
X132114285Y-38269047D01*
%TO.C,J3*%
X123366666Y-44602380D02*
X123366666Y-45316666D01*
X123319047Y-45459523D01*
X123223809Y-45554761D01*
X123080952Y-45602380D01*
X122985714Y-45602380D01*
X123747619Y-44602380D02*
X124366666Y-44602380D01*
X124033333Y-44983333D01*
X124176190Y-44983333D01*
X124271428Y-45030952D01*
X124319047Y-45078571D01*
X124366666Y-45173809D01*
X124366666Y-45411904D01*
X124319047Y-45507142D01*
X124271428Y-45554761D01*
X124176190Y-45602380D01*
X123890476Y-45602380D01*
X123795238Y-45554761D01*
X123747619Y-45507142D01*
%TO.C,J2*%
X131066666Y-44602380D02*
X131066666Y-45316666D01*
X131019047Y-45459523D01*
X130923809Y-45554761D01*
X130780952Y-45602380D01*
X130685714Y-45602380D01*
X131495238Y-44697619D02*
X131542857Y-44650000D01*
X131638095Y-44602380D01*
X131876190Y-44602380D01*
X131971428Y-44650000D01*
X132019047Y-44697619D01*
X132066666Y-44792857D01*
X132066666Y-44888095D01*
X132019047Y-45030952D01*
X131447619Y-45602380D01*
X132066666Y-45602380D01*
%TO.C,J1*%
X123366666Y-51602380D02*
X123366666Y-52316666D01*
X123319047Y-52459523D01*
X123223809Y-52554761D01*
X123080952Y-52602380D01*
X122985714Y-52602380D01*
X124366666Y-52602380D02*
X123795238Y-52602380D01*
X124080952Y-52602380D02*
X124080952Y-51602380D01*
X123985714Y-51745238D01*
X123890476Y-51840476D01*
X123795238Y-51888095D01*
%TO.C,R10*%
X110572380Y-63832857D02*
X110096190Y-64166190D01*
X110572380Y-64404285D02*
X109572380Y-64404285D01*
X109572380Y-64023333D01*
X109620000Y-63928095D01*
X109667619Y-63880476D01*
X109762857Y-63832857D01*
X109905714Y-63832857D01*
X110000952Y-63880476D01*
X110048571Y-63928095D01*
X110096190Y-64023333D01*
X110096190Y-64404285D01*
X110572380Y-62880476D02*
X110572380Y-63451904D01*
X110572380Y-63166190D02*
X109572380Y-63166190D01*
X109715238Y-63261428D01*
X109810476Y-63356666D01*
X109858095Y-63451904D01*
X109572380Y-62261428D02*
X109572380Y-62166190D01*
X109620000Y-62070952D01*
X109667619Y-62023333D01*
X109762857Y-61975714D01*
X109953333Y-61928095D01*
X110191428Y-61928095D01*
X110381904Y-61975714D01*
X110477142Y-62023333D01*
X110524761Y-62070952D01*
X110572380Y-62166190D01*
X110572380Y-62261428D01*
X110524761Y-62356666D01*
X110477142Y-62404285D01*
X110381904Y-62451904D01*
X110191428Y-62499523D01*
X109953333Y-62499523D01*
X109762857Y-62451904D01*
X109667619Y-62404285D01*
X109620000Y-62356666D01*
X109572380Y-62261428D01*
%TO.C,R2*%
X99452380Y-36766666D02*
X98976190Y-37100000D01*
X99452380Y-37338095D02*
X98452380Y-37338095D01*
X98452380Y-36957142D01*
X98500000Y-36861904D01*
X98547619Y-36814285D01*
X98642857Y-36766666D01*
X98785714Y-36766666D01*
X98880952Y-36814285D01*
X98928571Y-36861904D01*
X98976190Y-36957142D01*
X98976190Y-37338095D01*
X98547619Y-36385714D02*
X98500000Y-36338095D01*
X98452380Y-36242857D01*
X98452380Y-36004761D01*
X98500000Y-35909523D01*
X98547619Y-35861904D01*
X98642857Y-35814285D01*
X98738095Y-35814285D01*
X98880952Y-35861904D01*
X99452380Y-36433333D01*
X99452380Y-35814285D01*
%TO.C,U1*%
X114045595Y-59017380D02*
X114045595Y-59826904D01*
X114093214Y-59922142D01*
X114140833Y-59969761D01*
X114236071Y-60017380D01*
X114426547Y-60017380D01*
X114521785Y-59969761D01*
X114569404Y-59922142D01*
X114617023Y-59826904D01*
X114617023Y-59017380D01*
X115617023Y-60017380D02*
X115045595Y-60017380D01*
X115331309Y-60017380D02*
X115331309Y-59017380D01*
X115236071Y-59160238D01*
X115140833Y-59255476D01*
X115045595Y-59303095D01*
%TO.C,Q1*%
X84164761Y-81922619D02*
X84069523Y-81875000D01*
X83974285Y-81779761D01*
X83831428Y-81636904D01*
X83736190Y-81589285D01*
X83640952Y-81589285D01*
X83688571Y-81827380D02*
X83593333Y-81779761D01*
X83498095Y-81684523D01*
X83450476Y-81494047D01*
X83450476Y-81160714D01*
X83498095Y-80970238D01*
X83593333Y-80875000D01*
X83688571Y-80827380D01*
X83879047Y-80827380D01*
X83974285Y-80875000D01*
X84069523Y-80970238D01*
X84117142Y-81160714D01*
X84117142Y-81494047D01*
X84069523Y-81684523D01*
X83974285Y-81779761D01*
X83879047Y-81827380D01*
X83688571Y-81827380D01*
X85069523Y-81827380D02*
X84498095Y-81827380D01*
X84783809Y-81827380D02*
X84783809Y-80827380D01*
X84688571Y-80970238D01*
X84593333Y-81065476D01*
X84498095Y-81113095D01*
%TO.C,R3*%
X94602380Y-36766666D02*
X94126190Y-37100000D01*
X94602380Y-37338095D02*
X93602380Y-37338095D01*
X93602380Y-36957142D01*
X93650000Y-36861904D01*
X93697619Y-36814285D01*
X93792857Y-36766666D01*
X93935714Y-36766666D01*
X94030952Y-36814285D01*
X94078571Y-36861904D01*
X94126190Y-36957142D01*
X94126190Y-37338095D01*
X93602380Y-36433333D02*
X93602380Y-35814285D01*
X93983333Y-36147619D01*
X93983333Y-36004761D01*
X94030952Y-35909523D01*
X94078571Y-35861904D01*
X94173809Y-35814285D01*
X94411904Y-35814285D01*
X94507142Y-35861904D01*
X94554761Y-35909523D01*
X94602380Y-36004761D01*
X94602380Y-36290476D01*
X94554761Y-36385714D01*
X94507142Y-36433333D01*
%TO.C,R4*%
X89552380Y-36716666D02*
X89076190Y-37050000D01*
X89552380Y-37288095D02*
X88552380Y-37288095D01*
X88552380Y-36907142D01*
X88600000Y-36811904D01*
X88647619Y-36764285D01*
X88742857Y-36716666D01*
X88885714Y-36716666D01*
X88980952Y-36764285D01*
X89028571Y-36811904D01*
X89076190Y-36907142D01*
X89076190Y-37288095D01*
X88885714Y-35859523D02*
X89552380Y-35859523D01*
X88504761Y-36097619D02*
X89219047Y-36335714D01*
X89219047Y-35716666D01*
%TO.C,H1*%
X58638095Y-34652380D02*
X58638095Y-33652380D01*
X58638095Y-34128571D02*
X59209523Y-34128571D01*
X59209523Y-34652380D02*
X59209523Y-33652380D01*
X60209523Y-34652380D02*
X59638095Y-34652380D01*
X59923809Y-34652380D02*
X59923809Y-33652380D01*
X59828571Y-33795238D01*
X59733333Y-33890476D01*
X59638095Y-33938095D01*
%TO.C,R5*%
X84552380Y-36616666D02*
X84076190Y-36950000D01*
X84552380Y-37188095D02*
X83552380Y-37188095D01*
X83552380Y-36807142D01*
X83600000Y-36711904D01*
X83647619Y-36664285D01*
X83742857Y-36616666D01*
X83885714Y-36616666D01*
X83980952Y-36664285D01*
X84028571Y-36711904D01*
X84076190Y-36807142D01*
X84076190Y-37188095D01*
X83552380Y-35711904D02*
X83552380Y-36188095D01*
X84028571Y-36235714D01*
X83980952Y-36188095D01*
X83933333Y-36092857D01*
X83933333Y-35854761D01*
X83980952Y-35759523D01*
X84028571Y-35711904D01*
X84123809Y-35664285D01*
X84361904Y-35664285D01*
X84457142Y-35711904D01*
X84504761Y-35759523D01*
X84552380Y-35854761D01*
X84552380Y-36092857D01*
X84504761Y-36188095D01*
X84457142Y-36235714D01*
%TO.C,Q5*%
X84164761Y-53922619D02*
X84069523Y-53875000D01*
X83974285Y-53779761D01*
X83831428Y-53636904D01*
X83736190Y-53589285D01*
X83640952Y-53589285D01*
X83688571Y-53827380D02*
X83593333Y-53779761D01*
X83498095Y-53684523D01*
X83450476Y-53494047D01*
X83450476Y-53160714D01*
X83498095Y-52970238D01*
X83593333Y-52875000D01*
X83688571Y-52827380D01*
X83879047Y-52827380D01*
X83974285Y-52875000D01*
X84069523Y-52970238D01*
X84117142Y-53160714D01*
X84117142Y-53494047D01*
X84069523Y-53684523D01*
X83974285Y-53779761D01*
X83879047Y-53827380D01*
X83688571Y-53827380D01*
X85021904Y-52827380D02*
X84545714Y-52827380D01*
X84498095Y-53303571D01*
X84545714Y-53255952D01*
X84640952Y-53208333D01*
X84879047Y-53208333D01*
X84974285Y-53255952D01*
X85021904Y-53303571D01*
X85069523Y-53398809D01*
X85069523Y-53636904D01*
X85021904Y-53732142D01*
X84974285Y-53779761D01*
X84879047Y-53827380D01*
X84640952Y-53827380D01*
X84545714Y-53779761D01*
X84498095Y-53732142D01*
%TO.C,H4*%
X135288095Y-77952380D02*
X135288095Y-76952380D01*
X135288095Y-77428571D02*
X135859523Y-77428571D01*
X135859523Y-77952380D02*
X135859523Y-76952380D01*
X136764285Y-77285714D02*
X136764285Y-77952380D01*
X136526190Y-76904761D02*
X136288095Y-77619047D01*
X136907142Y-77619047D01*
%TO.C,Q3*%
X84164761Y-67922619D02*
X84069523Y-67875000D01*
X83974285Y-67779761D01*
X83831428Y-67636904D01*
X83736190Y-67589285D01*
X83640952Y-67589285D01*
X83688571Y-67827380D02*
X83593333Y-67779761D01*
X83498095Y-67684523D01*
X83450476Y-67494047D01*
X83450476Y-67160714D01*
X83498095Y-66970238D01*
X83593333Y-66875000D01*
X83688571Y-66827380D01*
X83879047Y-66827380D01*
X83974285Y-66875000D01*
X84069523Y-66970238D01*
X84117142Y-67160714D01*
X84117142Y-67494047D01*
X84069523Y-67684523D01*
X83974285Y-67779761D01*
X83879047Y-67827380D01*
X83688571Y-67827380D01*
X84450476Y-66827380D02*
X85069523Y-66827380D01*
X84736190Y-67208333D01*
X84879047Y-67208333D01*
X84974285Y-67255952D01*
X85021904Y-67303571D01*
X85069523Y-67398809D01*
X85069523Y-67636904D01*
X85021904Y-67732142D01*
X84974285Y-67779761D01*
X84879047Y-67827380D01*
X84593333Y-67827380D01*
X84498095Y-67779761D01*
X84450476Y-67732142D01*
%TO.C,R1*%
X104652380Y-36516666D02*
X104176190Y-36850000D01*
X104652380Y-37088095D02*
X103652380Y-37088095D01*
X103652380Y-36707142D01*
X103700000Y-36611904D01*
X103747619Y-36564285D01*
X103842857Y-36516666D01*
X103985714Y-36516666D01*
X104080952Y-36564285D01*
X104128571Y-36611904D01*
X104176190Y-36707142D01*
X104176190Y-37088095D01*
X104652380Y-35564285D02*
X104652380Y-36135714D01*
X104652380Y-35850000D02*
X103652380Y-35850000D01*
X103795238Y-35945238D01*
X103890476Y-36040476D01*
X103938095Y-36135714D01*
%TO.C,SW1*%
X117604761Y-47233333D02*
X117652380Y-47090476D01*
X117652380Y-46852380D01*
X117604761Y-46757142D01*
X117557142Y-46709523D01*
X117461904Y-46661904D01*
X117366666Y-46661904D01*
X117271428Y-46709523D01*
X117223809Y-46757142D01*
X117176190Y-46852380D01*
X117128571Y-47042857D01*
X117080952Y-47138095D01*
X117033333Y-47185714D01*
X116938095Y-47233333D01*
X116842857Y-47233333D01*
X116747619Y-47185714D01*
X116700000Y-47138095D01*
X116652380Y-47042857D01*
X116652380Y-46804761D01*
X116700000Y-46661904D01*
X116652380Y-46328571D02*
X117652380Y-46090476D01*
X116938095Y-45900000D01*
X117652380Y-45709523D01*
X116652380Y-45471428D01*
X117652380Y-44566666D02*
X117652380Y-45138095D01*
X117652380Y-44852380D02*
X116652380Y-44852380D01*
X116795238Y-44947619D01*
X116890476Y-45042857D01*
X116938095Y-45138095D01*
%TO.C,Q4*%
X84164761Y-60922619D02*
X84069523Y-60875000D01*
X83974285Y-60779761D01*
X83831428Y-60636904D01*
X83736190Y-60589285D01*
X83640952Y-60589285D01*
X83688571Y-60827380D02*
X83593333Y-60779761D01*
X83498095Y-60684523D01*
X83450476Y-60494047D01*
X83450476Y-60160714D01*
X83498095Y-59970238D01*
X83593333Y-59875000D01*
X83688571Y-59827380D01*
X83879047Y-59827380D01*
X83974285Y-59875000D01*
X84069523Y-59970238D01*
X84117142Y-60160714D01*
X84117142Y-60494047D01*
X84069523Y-60684523D01*
X83974285Y-60779761D01*
X83879047Y-60827380D01*
X83688571Y-60827380D01*
X84974285Y-60160714D02*
X84974285Y-60827380D01*
X84736190Y-59779761D02*
X84498095Y-60494047D01*
X85117142Y-60494047D01*
%TO.C,H2*%
X131888095Y-35002380D02*
X131888095Y-34002380D01*
X131888095Y-34478571D02*
X132459523Y-34478571D01*
X132459523Y-35002380D02*
X132459523Y-34002380D01*
X132888095Y-34097619D02*
X132935714Y-34050000D01*
X133030952Y-34002380D01*
X133269047Y-34002380D01*
X133364285Y-34050000D01*
X133411904Y-34097619D01*
X133459523Y-34192857D01*
X133459523Y-34288095D01*
X133411904Y-34430952D01*
X132840476Y-35002380D01*
X133459523Y-35002380D01*
%TO.C,Q2*%
X84164761Y-74922619D02*
X84069523Y-74875000D01*
X83974285Y-74779761D01*
X83831428Y-74636904D01*
X83736190Y-74589285D01*
X83640952Y-74589285D01*
X83688571Y-74827380D02*
X83593333Y-74779761D01*
X83498095Y-74684523D01*
X83450476Y-74494047D01*
X83450476Y-74160714D01*
X83498095Y-73970238D01*
X83593333Y-73875000D01*
X83688571Y-73827380D01*
X83879047Y-73827380D01*
X83974285Y-73875000D01*
X84069523Y-73970238D01*
X84117142Y-74160714D01*
X84117142Y-74494047D01*
X84069523Y-74684523D01*
X83974285Y-74779761D01*
X83879047Y-74827380D01*
X83688571Y-74827380D01*
X84498095Y-73922619D02*
X84545714Y-73875000D01*
X84640952Y-73827380D01*
X84879047Y-73827380D01*
X84974285Y-73875000D01*
X85021904Y-73922619D01*
X85069523Y-74017857D01*
X85069523Y-74113095D01*
X85021904Y-74255952D01*
X84450476Y-74827380D01*
X85069523Y-74827380D01*
%TO.C,H3*%
X55188095Y-78902380D02*
X55188095Y-77902380D01*
X55188095Y-78378571D02*
X55759523Y-78378571D01*
X55759523Y-78902380D02*
X55759523Y-77902380D01*
X56140476Y-77902380D02*
X56759523Y-77902380D01*
X56426190Y-78283333D01*
X56569047Y-78283333D01*
X56664285Y-78330952D01*
X56711904Y-78378571D01*
X56759523Y-78473809D01*
X56759523Y-78711904D01*
X56711904Y-78807142D01*
X56664285Y-78854761D01*
X56569047Y-78902380D01*
X56283333Y-78902380D01*
X56188095Y-78854761D01*
X56140476Y-78807142D01*
D11*
%TO.C,J6*%
X129800000Y-53040000D02*
X129800000Y-53240000D01*
X128950000Y-57350000D02*
X133850000Y-57350000D01*
X133850000Y-57350000D02*
X133850000Y-53850000D01*
X128340000Y-55850000D02*
X128950000Y-55850000D01*
X131500000Y-56850000D02*
X131500000Y-57350000D01*
X130900000Y-53240000D02*
X130900000Y-53850000D01*
X128950000Y-53850000D02*
X128950000Y-57350000D01*
X130100000Y-53240000D02*
X130100000Y-53040000D01*
X128340000Y-53240000D02*
X128340000Y-57960000D01*
X134460000Y-53240000D02*
X128340000Y-53240000D01*
X130900000Y-53850000D02*
X128950000Y-53850000D01*
X134460000Y-55850000D02*
X133850000Y-55850000D01*
X133850000Y-53850000D02*
X131900000Y-53850000D01*
X128340000Y-54550000D02*
X128950000Y-54550000D01*
X131400000Y-57350000D02*
X131400000Y-56850000D01*
X131300000Y-56850000D02*
X131500000Y-56850000D01*
X134460000Y-57960000D02*
X134460000Y-53240000D01*
X130100000Y-53140000D02*
X129800000Y-53140000D01*
X131900000Y-53850000D02*
X131900000Y-53240000D01*
X128040000Y-52940000D02*
X128040000Y-54190000D01*
X129290000Y-52940000D02*
X128040000Y-52940000D01*
X128340000Y-57960000D02*
X134460000Y-57960000D01*
X134460000Y-54550000D02*
X133850000Y-54550000D01*
X130100000Y-53040000D02*
X129800000Y-53040000D01*
X131300000Y-57350000D02*
X131300000Y-56850000D01*
%TO.C,J5*%
X122100000Y-39040000D02*
X122100000Y-39240000D01*
X121250000Y-43350000D02*
X126150000Y-43350000D01*
X126150000Y-43350000D02*
X126150000Y-39850000D01*
X120640000Y-41850000D02*
X121250000Y-41850000D01*
X123800000Y-42850000D02*
X123800000Y-43350000D01*
X123200000Y-39240000D02*
X123200000Y-39850000D01*
X121250000Y-39850000D02*
X121250000Y-43350000D01*
X122400000Y-39240000D02*
X122400000Y-39040000D01*
X120640000Y-39240000D02*
X120640000Y-43960000D01*
X126760000Y-39240000D02*
X120640000Y-39240000D01*
X123200000Y-39850000D02*
X121250000Y-39850000D01*
X126760000Y-41850000D02*
X126150000Y-41850000D01*
X126150000Y-39850000D02*
X124200000Y-39850000D01*
X120640000Y-40550000D02*
X121250000Y-40550000D01*
X123700000Y-43350000D02*
X123700000Y-42850000D01*
X123600000Y-42850000D02*
X123800000Y-42850000D01*
X126760000Y-43960000D02*
X126760000Y-39240000D01*
X122400000Y-39140000D02*
X122100000Y-39140000D01*
X124200000Y-39850000D02*
X124200000Y-39240000D01*
X120340000Y-38940000D02*
X120340000Y-40190000D01*
X121590000Y-38940000D02*
X120340000Y-38940000D01*
X120640000Y-43960000D02*
X126760000Y-43960000D01*
X126760000Y-40550000D02*
X126150000Y-40550000D01*
X122400000Y-39040000D02*
X122100000Y-39040000D01*
X123600000Y-43350000D02*
X123600000Y-42850000D01*
%TO.C,J4*%
X131300000Y-43350000D02*
X131300000Y-42850000D01*
X130100000Y-39040000D02*
X129800000Y-39040000D01*
X134460000Y-40550000D02*
X133850000Y-40550000D01*
X128340000Y-43960000D02*
X134460000Y-43960000D01*
X129290000Y-38940000D02*
X128040000Y-38940000D01*
X128040000Y-38940000D02*
X128040000Y-40190000D01*
X131900000Y-39850000D02*
X131900000Y-39240000D01*
X130100000Y-39140000D02*
X129800000Y-39140000D01*
X134460000Y-43960000D02*
X134460000Y-39240000D01*
X131300000Y-42850000D02*
X131500000Y-42850000D01*
X131400000Y-43350000D02*
X131400000Y-42850000D01*
X128340000Y-40550000D02*
X128950000Y-40550000D01*
X133850000Y-39850000D02*
X131900000Y-39850000D01*
X134460000Y-41850000D02*
X133850000Y-41850000D01*
X130900000Y-39850000D02*
X128950000Y-39850000D01*
X134460000Y-39240000D02*
X128340000Y-39240000D01*
X128340000Y-39240000D02*
X128340000Y-43960000D01*
X130100000Y-39240000D02*
X130100000Y-39040000D01*
X128950000Y-39850000D02*
X128950000Y-43350000D01*
X130900000Y-39240000D02*
X130900000Y-39850000D01*
X131500000Y-42850000D02*
X131500000Y-43350000D01*
X128340000Y-41850000D02*
X128950000Y-41850000D01*
X133850000Y-43350000D02*
X133850000Y-39850000D01*
X128950000Y-43350000D02*
X133850000Y-43350000D01*
X129800000Y-39040000D02*
X129800000Y-39240000D01*
%TO.C,J3*%
X122100000Y-46040000D02*
X122100000Y-46240000D01*
X121250000Y-50350000D02*
X126150000Y-50350000D01*
X126150000Y-50350000D02*
X126150000Y-46850000D01*
X120640000Y-48850000D02*
X121250000Y-48850000D01*
X123800000Y-49850000D02*
X123800000Y-50350000D01*
X123200000Y-46240000D02*
X123200000Y-46850000D01*
X121250000Y-46850000D02*
X121250000Y-50350000D01*
X122400000Y-46240000D02*
X122400000Y-46040000D01*
X120640000Y-46240000D02*
X120640000Y-50960000D01*
X126760000Y-46240000D02*
X120640000Y-46240000D01*
X123200000Y-46850000D02*
X121250000Y-46850000D01*
X126760000Y-48850000D02*
X126150000Y-48850000D01*
X126150000Y-46850000D02*
X124200000Y-46850000D01*
X120640000Y-47550000D02*
X121250000Y-47550000D01*
X123700000Y-50350000D02*
X123700000Y-49850000D01*
X123600000Y-49850000D02*
X123800000Y-49850000D01*
X126760000Y-50960000D02*
X126760000Y-46240000D01*
X122400000Y-46140000D02*
X122100000Y-46140000D01*
X124200000Y-46850000D02*
X124200000Y-46240000D01*
X120340000Y-45940000D02*
X120340000Y-47190000D01*
X121590000Y-45940000D02*
X120340000Y-45940000D01*
X120640000Y-50960000D02*
X126760000Y-50960000D01*
X126760000Y-47550000D02*
X126150000Y-47550000D01*
X122400000Y-46040000D02*
X122100000Y-46040000D01*
X123600000Y-50350000D02*
X123600000Y-49850000D01*
%TO.C,J2*%
X131300000Y-50350000D02*
X131300000Y-49850000D01*
X130100000Y-46040000D02*
X129800000Y-46040000D01*
X134460000Y-47550000D02*
X133850000Y-47550000D01*
X128340000Y-50960000D02*
X134460000Y-50960000D01*
X129290000Y-45940000D02*
X128040000Y-45940000D01*
X128040000Y-45940000D02*
X128040000Y-47190000D01*
X131900000Y-46850000D02*
X131900000Y-46240000D01*
X130100000Y-46140000D02*
X129800000Y-46140000D01*
X134460000Y-50960000D02*
X134460000Y-46240000D01*
X131300000Y-49850000D02*
X131500000Y-49850000D01*
X131400000Y-50350000D02*
X131400000Y-49850000D01*
X128340000Y-47550000D02*
X128950000Y-47550000D01*
X133850000Y-46850000D02*
X131900000Y-46850000D01*
X134460000Y-48850000D02*
X133850000Y-48850000D01*
X130900000Y-46850000D02*
X128950000Y-46850000D01*
X134460000Y-46240000D02*
X128340000Y-46240000D01*
X128340000Y-46240000D02*
X128340000Y-50960000D01*
X130100000Y-46240000D02*
X130100000Y-46040000D01*
X128950000Y-46850000D02*
X128950000Y-50350000D01*
X130900000Y-46240000D02*
X130900000Y-46850000D01*
X131500000Y-49850000D02*
X131500000Y-50350000D01*
X128340000Y-48850000D02*
X128950000Y-48850000D01*
X133850000Y-50350000D02*
X133850000Y-46850000D01*
X128950000Y-50350000D02*
X133850000Y-50350000D01*
X129800000Y-46040000D02*
X129800000Y-46240000D01*
%TO.C,J1*%
X122100000Y-53040000D02*
X122100000Y-53240000D01*
X121250000Y-57350000D02*
X126150000Y-57350000D01*
X126150000Y-57350000D02*
X126150000Y-53850000D01*
X120640000Y-55850000D02*
X121250000Y-55850000D01*
X123800000Y-56850000D02*
X123800000Y-57350000D01*
X123200000Y-53240000D02*
X123200000Y-53850000D01*
X121250000Y-53850000D02*
X121250000Y-57350000D01*
X122400000Y-53240000D02*
X122400000Y-53040000D01*
X120640000Y-53240000D02*
X120640000Y-57960000D01*
X126760000Y-53240000D02*
X120640000Y-53240000D01*
X123200000Y-53850000D02*
X121250000Y-53850000D01*
X126760000Y-55850000D02*
X126150000Y-55850000D01*
X126150000Y-53850000D02*
X124200000Y-53850000D01*
X120640000Y-54550000D02*
X121250000Y-54550000D01*
X123700000Y-57350000D02*
X123700000Y-56850000D01*
X123600000Y-56850000D02*
X123800000Y-56850000D01*
X126760000Y-57960000D02*
X126760000Y-53240000D01*
X122400000Y-53140000D02*
X122100000Y-53140000D01*
X124200000Y-53850000D02*
X124200000Y-53240000D01*
X120340000Y-52940000D02*
X120340000Y-54190000D01*
X121590000Y-52940000D02*
X120340000Y-52940000D01*
X120640000Y-57960000D02*
X126760000Y-57960000D01*
X126760000Y-54550000D02*
X126150000Y-54550000D01*
X122400000Y-53040000D02*
X122100000Y-53040000D01*
X123600000Y-57350000D02*
X123600000Y-56850000D01*
%TO.C,R10*%
X109120000Y-66460000D02*
X108790000Y-66460000D01*
X109120000Y-59920000D02*
X109120000Y-66460000D01*
X106380000Y-59920000D02*
X106380000Y-66460000D01*
X106380000Y-66460000D02*
X106710000Y-66460000D01*
X106710000Y-59920000D02*
X106380000Y-59920000D01*
X108790000Y-59920000D02*
X109120000Y-59920000D01*
%TO.C,R2*%
X95527500Y-37155000D02*
X95197500Y-37155000D01*
X97937500Y-37155000D02*
X97937500Y-43695000D01*
X97937500Y-43695000D02*
X97607500Y-43695000D01*
X95197500Y-43695000D02*
X95527500Y-43695000D01*
X95197500Y-37155000D02*
X95197500Y-43695000D01*
X97607500Y-37155000D02*
X97937500Y-37155000D01*
D12*
%TO.C,U1*%
X111872500Y-80960000D02*
X111872500Y-60640000D01*
X111872500Y-60640000D02*
X132192500Y-60640000D01*
X132192500Y-80960000D02*
X111872500Y-80960000D01*
X132192500Y-60640000D02*
X132192500Y-80960000D01*
D13*
X111332500Y-61910000D02*
G75*
G03*
X111332500Y-61910000I-100000J0D01*
G01*
D11*
%TO.C,Q1*%
X86110000Y-80375000D02*
X86110000Y-78865000D01*
X82409000Y-80375000D02*
X82409000Y-78865000D01*
X89380000Y-80375000D02*
X89380000Y-75734000D01*
X89380000Y-75734000D02*
X79140000Y-75734000D01*
X89380000Y-78865000D02*
X79140000Y-78865000D01*
X89380000Y-80375000D02*
X79140000Y-80375000D01*
X79140000Y-80375000D02*
X79140000Y-75734000D01*
%TO.C,R3*%
X90197500Y-43695000D02*
X90527500Y-43695000D01*
X90197500Y-37155000D02*
X90197500Y-43695000D01*
X92937500Y-43695000D02*
X92607500Y-43695000D01*
X92607500Y-37155000D02*
X92937500Y-37155000D01*
X92937500Y-37155000D02*
X92937500Y-43695000D01*
X90527500Y-37155000D02*
X90197500Y-37155000D01*
%TO.C,R4*%
X85527500Y-37155000D02*
X85197500Y-37155000D01*
X85197500Y-43695000D02*
X85527500Y-43695000D01*
X85197500Y-37155000D02*
X85197500Y-43695000D01*
X87937500Y-43695000D02*
X87607500Y-43695000D01*
X87937500Y-37155000D02*
X87937500Y-43695000D01*
X87607500Y-37155000D02*
X87937500Y-37155000D01*
%TO.C,R5*%
X80527500Y-37155000D02*
X80197500Y-37155000D01*
X82937500Y-37155000D02*
X82937500Y-43695000D01*
X82937500Y-43695000D02*
X82607500Y-43695000D01*
X80197500Y-37155000D02*
X80197500Y-43695000D01*
X82607500Y-37155000D02*
X82937500Y-37155000D01*
X80197500Y-43695000D02*
X80527500Y-43695000D01*
%TO.C,Q5*%
X89380000Y-52375000D02*
X79140000Y-52375000D01*
X82409000Y-52375000D02*
X82409000Y-50865000D01*
X89380000Y-52375000D02*
X89380000Y-47734000D01*
X89380000Y-47734000D02*
X79140000Y-47734000D01*
X86110000Y-52375000D02*
X86110000Y-50865000D01*
X89380000Y-50865000D02*
X79140000Y-50865000D01*
X79140000Y-52375000D02*
X79140000Y-47734000D01*
%TO.C,Q3*%
X89380000Y-64865000D02*
X79140000Y-64865000D01*
X89380000Y-66375000D02*
X89380000Y-61734000D01*
X86110000Y-66375000D02*
X86110000Y-64865000D01*
X82409000Y-66375000D02*
X82409000Y-64865000D01*
X89380000Y-66375000D02*
X79140000Y-66375000D01*
X79140000Y-66375000D02*
X79140000Y-61734000D01*
X89380000Y-61734000D02*
X79140000Y-61734000D01*
%TO.C,R1*%
X102937500Y-37155000D02*
X102937500Y-43695000D01*
X102937500Y-43695000D02*
X102607500Y-43695000D01*
X102607500Y-37155000D02*
X102937500Y-37155000D01*
X100197500Y-43695000D02*
X100527500Y-43695000D01*
X100197500Y-37155000D02*
X100197500Y-43695000D01*
X100527500Y-37155000D02*
X100197500Y-37155000D01*
%TO.C,SW1*%
X104100000Y-52000000D02*
X104100000Y-39800000D01*
X116300000Y-52000000D02*
X104100000Y-52000000D01*
X104100000Y-39800000D02*
X106090000Y-39800000D01*
X111390000Y-39800000D02*
X109010000Y-39800000D01*
X114310000Y-39800000D02*
X116300000Y-39800000D01*
X116300000Y-39800000D02*
X116300000Y-52000000D01*
X112850000Y-45900000D02*
G75*
G03*
X112850000Y-45900000I-2650000J0D01*
G01*
%TO.C,Q4*%
X89380000Y-59375000D02*
X79140000Y-59375000D01*
X79140000Y-59375000D02*
X79140000Y-54734000D01*
X89380000Y-54734000D02*
X79140000Y-54734000D01*
X82409000Y-59375000D02*
X82409000Y-57865000D01*
X89380000Y-59375000D02*
X89380000Y-54734000D01*
X89380000Y-57865000D02*
X79140000Y-57865000D01*
X86110000Y-59375000D02*
X86110000Y-57865000D01*
%TO.C,Q2*%
X82409000Y-73375000D02*
X82409000Y-71865000D01*
X89380000Y-71865000D02*
X79140000Y-71865000D01*
X79140000Y-73375000D02*
X79140000Y-68734000D01*
X86110000Y-73375000D02*
X86110000Y-71865000D01*
X89380000Y-68734000D02*
X79140000Y-68734000D01*
X89380000Y-73375000D02*
X89380000Y-68734000D01*
X89380000Y-73375000D02*
X79140000Y-73375000D01*
%TD*%
M02*
