M48
; DRILL file {KiCad (6.0.6)} date Thu Jun 23 13:36:13 2022
; FORMAT={-:-/ absolute / inch / decimal}
; #@! TF.CreationDate,2022-06-23T13:36:13-07:00
; #@! TF.GenerationSoftware,Kicad,Pcbnew,(6.0.6)
; #@! TF.FileFunction,MixedPlating,1,2
FMAT,2
INCH
; #@! TA.AperFunction,Plated,PTH,ViaDrill
T1C0.0157
; #@! TA.AperFunction,Plated,PTH,ComponentDrill
T2C0.0295
; #@! TA.AperFunction,Plated,PTH,ComponentDrill
T3C0.0315
; #@! TA.AperFunction,Plated,PTH,ComponentDrill
T4C0.0394
; #@! TA.AperFunction,Plated,PTH,ComponentDrill
T5C0.0433
; #@! TA.AperFunction,Plated,PTH,ComponentDrill
T6C0.0472
; #@! TA.AperFunction,NonPlated,NPTH,ComponentDrill
T7C0.0492
; #@! TA.AperFunction,NonPlated,NPTH,ComponentDrill
T8C0.2953
%
G90
G05
T1
X3.998Y-2.3484
X3.998Y-2.3898
X4.0032Y-2.4288
X4.0071Y-2.3089
X4.0098Y-2.2697
X4.1204Y-2.9731
X4.122Y-2.9331
X4.3366Y-2.7972
T2
X3.7598Y-2.1102
X3.8386Y-2.1102
X4.8307Y-1.6161
X4.8307Y-1.8917
X4.8307Y-2.1673
X4.9094Y-1.6161
X4.9094Y-1.8917
X4.9094Y-2.1673
X5.1339Y-1.6161
X5.1339Y-1.8917
X5.1339Y-2.1673
X5.2126Y-1.6161
X5.2126Y-1.8917
X5.2126Y-2.1673
T3
X3.2113Y-1.4415
X3.2113Y-1.7415
X3.4082Y-1.4415
X3.4082Y-1.7415
X3.605Y-1.4415
X3.605Y-1.7415
X3.8019Y-1.4415
X3.8019Y-1.7415
X3.9987Y-1.4415
X3.9987Y-1.7415
X4.2421Y-2.3378
X4.2421Y-2.6378
X4.4494Y-2.4374
X4.4494Y-2.5374
X4.4494Y-2.6374
X4.4494Y-2.7374
X4.4494Y-2.8374
X4.4494Y-2.9374
X4.4494Y-3.0374
X4.4494Y-3.1374
X5.1594Y-2.4374
X5.1594Y-2.5374
X5.1594Y-2.6374
X5.1594Y-2.7374
X5.1594Y-2.8374
X5.1594Y-2.9374
X5.1594Y-3.0374
X5.1594Y-3.1374
T4
X2.3035Y-1.6396
X2.3035Y-1.7396
X2.3035Y-1.8396
X2.3035Y-1.9396
X2.3035Y-2.0396
X2.3035Y-2.1396
X2.3035Y-2.2396
X2.3035Y-2.3396
X2.3035Y-2.4396
X2.3035Y-2.5396
X2.3035Y-2.6396
X2.3035Y-2.7396
X2.3035Y-2.8396
X2.3035Y-2.9396
X2.3035Y-3.0396
X2.3535Y-1.6396
X2.3535Y-1.7396
X2.3535Y-1.8396
X2.3535Y-1.9396
X2.3535Y-2.0396
X2.3535Y-2.1396
X2.3535Y-2.2396
X2.3535Y-2.3396
X2.3535Y-2.4396
X2.3535Y-2.5396
X2.3535Y-2.6396
X2.3535Y-2.7396
X2.3535Y-2.8396
X2.3535Y-2.9396
X2.3535Y-3.0396
X2.9535Y-1.6396
X2.9535Y-1.7396
X2.9535Y-1.8396
X2.9535Y-1.9396
X2.9535Y-2.0396
X2.9535Y-2.1396
X2.9535Y-2.2396
X2.9535Y-2.3396
X2.9535Y-2.4396
X2.9535Y-2.5396
X2.9535Y-2.6396
X2.9535Y-2.7396
X2.9535Y-2.8396
X2.9535Y-2.9396
X2.9535Y-3.0396
X3.0035Y-1.6396
X3.0035Y-1.7396
X3.0035Y-1.8396
X3.0035Y-1.9396
X3.0035Y-2.0396
X3.0035Y-2.1396
X3.0035Y-2.2396
X3.0035Y-2.3396
X3.0035Y-2.4396
X3.0035Y-2.5396
X3.0035Y-2.6396
X3.0035Y-2.7396
X3.0035Y-2.8396
X3.0035Y-2.9396
X3.0035Y-3.0396
T5
X3.2173Y-1.9333
X3.2173Y-2.2089
X3.2173Y-2.4844
X3.2173Y-2.76
X3.2173Y-3.0356
X3.3173Y-1.9333
X3.3173Y-2.2089
X3.3173Y-2.4844
X3.3173Y-2.76
X3.3173Y-3.0356
X3.4173Y-1.9333
X3.4173Y-2.2089
X3.4173Y-2.4844
X3.4173Y-2.76
X3.4173Y-3.0356
T6
X4.2343Y-1.5433
X4.4429Y-1.5433
T7
X2.2579Y-1.4173
X2.2579Y-3.189
X5.3563Y-1.4173
X5.3563Y-3.189
T8
X3.8071Y-2.7264
T0
M30
