%TF.GenerationSoftware,KiCad,Pcbnew,(6.0.6)*%
%TF.CreationDate,2022-06-23T13:36:09-07:00*%
%TF.ProjectId,KnightPCB,4b6e6967-6874-4504-9342-2e6b69636164,rev?*%
%TF.SameCoordinates,Original*%
%TF.FileFunction,Copper,L2,Bot*%
%TF.FilePolarity,Positive*%
%FSLAX46Y46*%
G04 Gerber Fmt 4.6, Leading zero omitted, Abs format (unit mm)*
G04 Created by KiCad (PCBNEW (6.0.6)) date 2022-06-23 13:36:09*
%MOMM*%
%LPD*%
G01*
G04 APERTURE LIST*
G04 Aperture macros list*
%AMRoundRect*
0 Rectangle with rounded corners*
0 $1 Rounding radius*
0 $2 $3 $4 $5 $6 $7 $8 $9 X,Y pos of 4 corners*
0 Add a 4 corners polygon primitive as box body*
4,1,4,$2,$3,$4,$5,$6,$7,$8,$9,$2,$3,0*
0 Add four circle primitives for the rounded corners*
1,1,$1+$1,$2,$3*
1,1,$1+$1,$4,$5*
1,1,$1+$1,$6,$7*
1,1,$1+$1,$8,$9*
0 Add four rect primitives between the rounded corners*
20,1,$1+$1,$2,$3,$4,$5,0*
20,1,$1+$1,$4,$5,$6,$7,0*
20,1,$1+$1,$6,$7,$8,$9,0*
20,1,$1+$1,$8,$9,$2,$3,0*%
G04 Aperture macros list end*
%TA.AperFunction,ComponentPad*%
%ADD10RoundRect,0.250000X-0.350000X-0.625000X0.350000X-0.625000X0.350000X0.625000X-0.350000X0.625000X0*%
%TD*%
%TA.AperFunction,ComponentPad*%
%ADD11O,1.200000X1.750000*%
%TD*%
%TA.AperFunction,ComponentPad*%
%ADD12C,1.600000*%
%TD*%
%TA.AperFunction,ComponentPad*%
%ADD13O,1.600000X1.600000*%
%TD*%
%TA.AperFunction,ComponentPad*%
%ADD14R,1.308000X1.308000*%
%TD*%
%TA.AperFunction,ComponentPad*%
%ADD15C,1.308000*%
%TD*%
%TA.AperFunction,ComponentPad*%
%ADD16R,1.905000X2.000000*%
%TD*%
%TA.AperFunction,ComponentPad*%
%ADD17O,1.905000X2.000000*%
%TD*%
%TA.AperFunction,ComponentPad*%
%ADD18C,2.400000*%
%TD*%
%TA.AperFunction,ComponentPad*%
%ADD19C,1.700000*%
%TD*%
%TA.AperFunction,ComponentPad*%
%ADD20O,1.700000X1.700000*%
%TD*%
%TA.AperFunction,ComponentPad*%
%ADD21RoundRect,0.250000X0.350000X0.625000X-0.350000X0.625000X-0.350000X-0.625000X0.350000X-0.625000X0*%
%TD*%
%TA.AperFunction,ViaPad*%
%ADD22C,0.800000*%
%TD*%
%TA.AperFunction,Conductor*%
%ADD23C,0.250000*%
%TD*%
G04 APERTURE END LIST*
D10*
%TO.P,J6,1,Pin_1*%
%TO.N,Net-(J6-Pad1)*%
X130400000Y-55050000D03*
D11*
%TO.P,J6,2,Pin_2*%
%TO.N,Net-(J6-Pad2)*%
X132400000Y-55050000D03*
%TD*%
D10*
%TO.P,J5,1,Pin_1*%
%TO.N,Net-(J5-Pad1)*%
X122700000Y-41050000D03*
D11*
%TO.P,J5,2,Pin_2*%
%TO.N,Net-(A1-Pad15)*%
X124700000Y-41050000D03*
%TD*%
%TO.P,J4,2,Pin_2*%
%TO.N,Net-(A1-Pad15)*%
X132400000Y-41050000D03*
D10*
%TO.P,J4,1,Pin_1*%
%TO.N,Net-(J4-Pad1)*%
X130400000Y-41050000D03*
%TD*%
%TO.P,J3,1,Pin_1*%
%TO.N,Net-(J3-Pad1)*%
X122700000Y-48050000D03*
D11*
%TO.P,J3,2,Pin_2*%
%TO.N,Net-(A1-Pad15)*%
X124700000Y-48050000D03*
%TD*%
%TO.P,J2,2,Pin_2*%
%TO.N,Net-(A1-Pad15)*%
X132400000Y-48050000D03*
D10*
%TO.P,J2,1,Pin_1*%
%TO.N,Net-(J2-Pad1)*%
X130400000Y-48050000D03*
%TD*%
%TO.P,J1,1,Pin_1*%
%TO.N,Net-(J1-Pad1)*%
X122700000Y-55050000D03*
D11*
%TO.P,J1,2,Pin_2*%
%TO.N,Net-(A1-Pad15)*%
X124700000Y-55050000D03*
%TD*%
D12*
%TO.P,R10,1*%
%TO.N,Net-(R10-Pad1)*%
X107750000Y-59380000D03*
D13*
%TO.P,R10,2*%
%TO.N,Net-(A1-Pad16)*%
X107750000Y-67000000D03*
%TD*%
D12*
%TO.P,R2,1*%
%TO.N,Net-(A1-Pad23)*%
X96567500Y-36615000D03*
D13*
%TO.P,R2,2*%
%TO.N,GND*%
X96567500Y-44235000D03*
%TD*%
D14*
%TO.P,U1,1,VCC*%
%TO.N,Net-(A1-Pad2)*%
X113015500Y-61910000D03*
D15*
%TO.P,U1,2,RX*%
%TO.N,Net-(R10-Pad1)*%
X113015500Y-64450000D03*
%TO.P,U1,3,TX*%
%TO.N,Net-(A1-Pad17)*%
X113015500Y-66990000D03*
%TO.P,U1,4,DAC_R*%
%TO.N,unconnected-(U1-Pad4)*%
X113015500Y-69530000D03*
%TO.P,U1,5,DAC_L*%
%TO.N,unconnected-(U1-Pad5)*%
X113015500Y-72070000D03*
%TO.P,U1,6,SPK1*%
%TO.N,Net-(J6-Pad1)*%
X113015500Y-74610000D03*
%TO.P,U1,7,GND*%
%TO.N,GND*%
X113015500Y-77150000D03*
%TO.P,U1,8,SPK2*%
%TO.N,Net-(J6-Pad2)*%
X113015500Y-79690000D03*
%TO.P,U1,9,IO1*%
%TO.N,unconnected-(U1-Pad9)*%
X131049500Y-79690000D03*
%TO.P,U1,10,GND*%
%TO.N,GND*%
X131049500Y-77150000D03*
%TO.P,U1,11,IO2*%
%TO.N,unconnected-(U1-Pad11)*%
X131049500Y-74610000D03*
%TO.P,U1,12,ADKEY1*%
%TO.N,unconnected-(U1-Pad12)*%
X131049500Y-72070000D03*
%TO.P,U1,13,ADKEY2*%
%TO.N,unconnected-(U1-Pad13)*%
X131049500Y-69530000D03*
%TO.P,U1,14,USB+*%
%TO.N,unconnected-(U1-Pad14)*%
X131049500Y-66990000D03*
%TO.P,U1,15,USB-*%
%TO.N,unconnected-(U1-Pad15)*%
X131049500Y-64450000D03*
%TO.P,U1,16,BUSY*%
%TO.N,unconnected-(U1-Pad16)*%
X131049500Y-61910000D03*
%TD*%
D16*
%TO.P,Q1,1,G*%
%TO.N,Net-(A1-Pad24)*%
X86800000Y-77105000D03*
D17*
%TO.P,Q1,2,D*%
%TO.N,Net-(J1-Pad1)*%
X84260000Y-77105000D03*
%TO.P,Q1,3,S*%
%TO.N,GND*%
X81720000Y-77105000D03*
%TD*%
D12*
%TO.P,R3,1*%
%TO.N,Net-(A1-Pad22)*%
X91567500Y-36615000D03*
D13*
%TO.P,R3,2*%
%TO.N,GND*%
X91567500Y-44235000D03*
%TD*%
D12*
%TO.P,R4,1*%
%TO.N,Net-(A1-Pad21)*%
X86567500Y-36615000D03*
D13*
%TO.P,R4,2*%
%TO.N,GND*%
X86567500Y-44235000D03*
%TD*%
D12*
%TO.P,R5,1*%
%TO.N,Net-(A1-Pad20)*%
X81567500Y-36615000D03*
D13*
%TO.P,R5,2*%
%TO.N,GND*%
X81567500Y-44235000D03*
%TD*%
D16*
%TO.P,Q5,1,G*%
%TO.N,Net-(A1-Pad20)*%
X86800000Y-49105000D03*
D17*
%TO.P,Q5,2,D*%
%TO.N,Net-(J5-Pad1)*%
X84260000Y-49105000D03*
%TO.P,Q5,3,S*%
%TO.N,GND*%
X81720000Y-49105000D03*
%TD*%
D16*
%TO.P,Q3,1,G*%
%TO.N,Net-(A1-Pad22)*%
X86800000Y-63105000D03*
D17*
%TO.P,Q3,2,D*%
%TO.N,Net-(J3-Pad1)*%
X84260000Y-63105000D03*
%TO.P,Q3,3,S*%
%TO.N,GND*%
X81720000Y-63105000D03*
%TD*%
D12*
%TO.P,R1,1*%
%TO.N,Net-(A1-Pad24)*%
X101567500Y-36615000D03*
D13*
%TO.P,R1,2*%
%TO.N,GND*%
X101567500Y-44235000D03*
%TD*%
D18*
%TO.P,SW1,1,A*%
%TO.N,+12V*%
X112850000Y-39200000D03*
%TO.P,SW1,2,B*%
%TO.N,Net-(A1-Pad15)*%
X107550000Y-39200000D03*
%TD*%
D19*
%TO.P,A1,1,D13~*%
%TO.N,unconnected-(A1-Pad1)*%
X76290000Y-77205000D03*
X75020000Y-77205000D03*
D20*
%TO.P,A1,2,+3V3*%
%TO.N,Net-(A1-Pad2)*%
X75020000Y-74665000D03*
D19*
X76290000Y-74665000D03*
D20*
%TO.P,A1,3,AREF*%
%TO.N,unconnected-(A1-Pad3)*%
X75020000Y-72125000D03*
D19*
X76290000Y-72125000D03*
D20*
%TO.P,A1,4,A0*%
%TO.N,unconnected-(A1-Pad4)*%
X75020000Y-69585000D03*
D19*
X76290000Y-69585000D03*
D20*
%TO.P,A1,5,A1*%
%TO.N,unconnected-(A1-Pad5)*%
X75020000Y-67045000D03*
D19*
X76290000Y-67045000D03*
D20*
%TO.P,A1,6,A2*%
%TO.N,unconnected-(A1-Pad6)*%
X75020000Y-64505000D03*
D19*
X76290000Y-64505000D03*
D20*
%TO.P,A1,7,A3*%
%TO.N,unconnected-(A1-Pad7)*%
X75020000Y-61965000D03*
D19*
X76290000Y-61965000D03*
D20*
%TO.P,A1,8,A4*%
%TO.N,unconnected-(A1-Pad8)*%
X75020000Y-59425000D03*
D19*
X76290000Y-59425000D03*
%TO.P,A1,9,A5*%
%TO.N,unconnected-(A1-Pad9)*%
X76290000Y-56885000D03*
D20*
X75020000Y-56885000D03*
%TO.P,A1,10,A6*%
%TO.N,unconnected-(A1-Pad10)*%
X75020000Y-54345000D03*
D19*
X76290000Y-54345000D03*
D20*
%TO.P,A1,11,A7*%
%TO.N,unconnected-(A1-Pad11)*%
X75020000Y-51805000D03*
D19*
X76290000Y-51805000D03*
%TO.P,A1,12,+5V*%
%TO.N,unconnected-(A1-Pad12)*%
X76290000Y-49265000D03*
D20*
X75020000Y-49265000D03*
%TO.P,A1,13,RESET*%
%TO.N,unconnected-(A1-Pad13)*%
X75020000Y-46725000D03*
D19*
X76290000Y-46725000D03*
D20*
%TO.P,A1,14,GND*%
%TO.N,GND*%
X75020000Y-44185000D03*
D19*
X76290000Y-44185000D03*
%TO.P,A1,15,VIN*%
%TO.N,Net-(A1-Pad15)*%
X76290000Y-41645000D03*
D20*
X75020000Y-41645000D03*
D19*
%TO.P,A1,16,TX*%
%TO.N,Net-(A1-Pad16)*%
X58510000Y-41645000D03*
X59780000Y-41645000D03*
%TO.P,A1,17,RX*%
%TO.N,Net-(A1-Pad17)*%
X58510000Y-44185000D03*
D20*
X59780000Y-44185000D03*
D19*
%TO.P,A1,18,RESET*%
%TO.N,unconnected-(A1-Pad18)*%
X58510000Y-46725000D03*
D20*
X59780000Y-46725000D03*
D19*
%TO.P,A1,19,GND*%
%TO.N,GND*%
X58510000Y-49265000D03*
D20*
X59780000Y-49265000D03*
D19*
%TO.P,A1,20,~D2*%
%TO.N,Net-(A1-Pad20)*%
X58510000Y-51805000D03*
D20*
X59780000Y-51805000D03*
D19*
%TO.P,A1,21,~D3*%
%TO.N,Net-(A1-Pad21)*%
X58510000Y-54345000D03*
D20*
X59780000Y-54345000D03*
%TO.P,A1,22,~D4*%
%TO.N,Net-(A1-Pad22)*%
X59780000Y-56885000D03*
D19*
X58510000Y-56885000D03*
%TO.P,A1,23,~D5*%
%TO.N,Net-(A1-Pad23)*%
X58510000Y-59425000D03*
D20*
X59780000Y-59425000D03*
%TO.P,A1,24,~D6*%
%TO.N,Net-(A1-Pad24)*%
X59780000Y-61965000D03*
D19*
X58510000Y-61965000D03*
%TO.P,A1,25,~D7*%
%TO.N,unconnected-(A1-Pad25)*%
X58510000Y-64505000D03*
D20*
X59780000Y-64505000D03*
D19*
%TO.P,A1,26,~D8*%
%TO.N,unconnected-(A1-Pad26)*%
X58510000Y-67045000D03*
D20*
X59780000Y-67045000D03*
%TO.P,A1,27,~D9*%
%TO.N,unconnected-(A1-Pad27)*%
X59780000Y-69585000D03*
D19*
X58510000Y-69585000D03*
%TO.P,A1,28,~D10*%
%TO.N,unconnected-(A1-Pad28)*%
X58510000Y-72125000D03*
D20*
X59780000Y-72125000D03*
D19*
%TO.P,A1,29,CIPI*%
%TO.N,unconnected-(A1-Pad29)*%
X58510000Y-74665000D03*
D20*
X59780000Y-74665000D03*
%TO.P,A1,30,CIPO*%
%TO.N,unconnected-(A1-Pad30)*%
X59780000Y-77205000D03*
D19*
X58510000Y-77205000D03*
%TD*%
D16*
%TO.P,Q4,1,G*%
%TO.N,Net-(A1-Pad21)*%
X86800000Y-56105000D03*
D17*
%TO.P,Q4,2,D*%
%TO.N,Net-(J4-Pad1)*%
X84260000Y-56105000D03*
%TO.P,Q4,3,S*%
%TO.N,GND*%
X81720000Y-56105000D03*
%TD*%
D16*
%TO.P,Q2,1,G*%
%TO.N,Net-(A1-Pad23)*%
X86800000Y-70105000D03*
D17*
%TO.P,Q2,2,D*%
%TO.N,Net-(J2-Pad1)*%
X84260000Y-70105000D03*
%TO.P,Q2,3,S*%
%TO.N,GND*%
X81720000Y-70105000D03*
%TD*%
D21*
%TO.P,J0+12v1,1,Pin_1*%
%TO.N,GND*%
X97500000Y-53600000D03*
D11*
%TO.P,J0+12v1,2,Pin_2*%
%TO.N,+12V*%
X95500000Y-53600000D03*
%TD*%
D22*
%TO.N,Net-(J3-Pad1)*%
X101550000Y-59650000D03*
%TO.N,Net-(J1-Pad1)*%
X101682098Y-61690735D03*
%TO.N,Net-(J2-Pad1)*%
X101550000Y-60700000D03*
%TO.N,Net-(J4-Pad1)*%
X101781232Y-58647134D03*
%TO.N,Net-(J5-Pad1)*%
X101850000Y-57650000D03*
%TO.N,Net-(A1-Pad2)*%
X110150000Y-71050000D03*
%TO.N,Net-(A1-Pad16)*%
X104700000Y-74500000D03*
%TO.N,Net-(A1-Pad17)*%
X104659064Y-75515535D03*
%TD*%
D23*
%TO.N,Net-(J3-Pad1)*%
X117050000Y-53700000D02*
X122700000Y-48050000D01*
X102522792Y-59650000D02*
X108472792Y-53700000D01*
X101550000Y-59650000D02*
X102522792Y-59650000D01*
X108472792Y-53700000D02*
X117050000Y-53700000D01*
%TO.N,Net-(J1-Pad1)*%
X101682098Y-61690735D02*
X101754849Y-61690735D01*
X101754849Y-61690735D02*
X108845584Y-54600000D01*
X108845584Y-54600000D02*
X122250000Y-54600000D01*
X122250000Y-54600000D02*
X122700000Y-55050000D01*
%TO.N,Net-(J4-Pad1)*%
X117500000Y-46336396D02*
X118736396Y-45100000D01*
X118736396Y-45100000D02*
X126350000Y-45100000D01*
X117500000Y-52036396D02*
X117500000Y-46336396D01*
X116386396Y-53150000D02*
X117500000Y-52036396D01*
X126350000Y-45100000D02*
X130400000Y-41050000D01*
X102889262Y-58647134D02*
X108386396Y-53150000D01*
X101781232Y-58647134D02*
X102889262Y-58647134D01*
X108386396Y-53150000D02*
X116386396Y-53150000D01*
%TO.N,Net-(J5-Pad1)*%
X116200000Y-52700000D02*
X117050000Y-51850000D01*
X116000000Y-52700000D02*
X116200000Y-52700000D01*
%TO.N,Net-(J2-Pad1)*%
X119093198Y-52293198D02*
X126156802Y-52293198D01*
X117236396Y-54150000D02*
X119093198Y-52293198D01*
X108659188Y-54150000D02*
X117236396Y-54150000D01*
X101550000Y-60700000D02*
X102109188Y-60700000D01*
X126156802Y-52293198D02*
X130400000Y-48050000D01*
X102109188Y-60700000D02*
X108659188Y-54150000D01*
%TO.N,Net-(J5-Pad1)*%
X122700000Y-42450000D02*
X122700000Y-41050000D01*
X120500000Y-44650000D02*
X122700000Y-42450000D01*
X117050000Y-46150000D02*
X118550000Y-44650000D01*
X117050000Y-51850000D02*
X117050000Y-46150000D01*
X108200000Y-52700000D02*
X116000000Y-52700000D01*
X103250000Y-57650000D02*
X108200000Y-52700000D01*
X101850000Y-57650000D02*
X103250000Y-57650000D01*
X118550000Y-44650000D02*
X120500000Y-44650000D01*
%TO.N,Net-(A1-Pad15)*%
X128730714Y-37380714D02*
X109369286Y-37380714D01*
X132400000Y-41050000D02*
X128730714Y-37380714D01*
X121030714Y-37380714D02*
X109369286Y-37380714D01*
X124700000Y-41050000D02*
X121030714Y-37380714D01*
X107550000Y-39200000D02*
X109369286Y-37380714D01*
%TO.N,Net-(J6-Pad2)*%
X128300000Y-59150000D02*
X132400000Y-55050000D01*
X128300000Y-71986396D02*
X128300000Y-59150000D01*
X117645500Y-75060000D02*
X125226396Y-75060000D01*
X125226396Y-75060000D02*
X128300000Y-71986396D01*
X113015500Y-79690000D02*
X117645500Y-75060000D01*
%TO.N,Net-(J6-Pad1)*%
X127850000Y-57600000D02*
X130400000Y-55050000D01*
X127850000Y-71800000D02*
X127850000Y-57600000D01*
X125040000Y-74610000D02*
X127850000Y-71800000D01*
X113015500Y-74610000D02*
X125040000Y-74610000D01*
%TO.N,Net-(A1-Pad2)*%
X88350000Y-78450000D02*
X102750000Y-78450000D01*
X76290000Y-74665000D02*
X80075000Y-78450000D01*
X102750000Y-78450000D02*
X110150000Y-71050000D01*
X80075000Y-78450000D02*
X88350000Y-78450000D01*
%TO.N,Net-(A1-Pad16)*%
X107750000Y-71450000D02*
X107750000Y-67000000D01*
X104700000Y-74500000D02*
X107750000Y-71450000D01*
%TO.N,+12V*%
X96907890Y-52192110D02*
X95500000Y-53600000D01*
X112850000Y-39200000D02*
X112850000Y-40897056D01*
X101554946Y-52192110D02*
X96907890Y-52192110D01*
X112850000Y-40897056D02*
X101554946Y-52192110D01*
%TO.N,Net-(A1-Pad23)*%
X78600000Y-61905000D02*
X78600000Y-40213604D01*
X94150000Y-39032500D02*
X96567500Y-36615000D01*
X72113604Y-39250000D02*
X66900000Y-44463604D01*
X64938604Y-59425000D02*
X59780000Y-59425000D01*
X66900000Y-57463604D02*
X64938604Y-59425000D01*
X77636396Y-39250000D02*
X72113604Y-39250000D01*
X66900000Y-44463604D02*
X66900000Y-57463604D01*
X94150000Y-46313604D02*
X94150000Y-39032500D01*
X86800000Y-70105000D02*
X89600000Y-67305000D01*
X86800000Y-70105000D02*
X78600000Y-61905000D01*
X89600000Y-67305000D02*
X89600000Y-50863604D01*
X89600000Y-50863604D02*
X94150000Y-46313604D01*
X78600000Y-40213604D02*
X77636396Y-39250000D01*
%TO.N,Net-(A1-Pad22)*%
X89100000Y-60850000D02*
X89150000Y-60800000D01*
X89150000Y-60800000D02*
X89150000Y-39032500D01*
X86800000Y-63105000D02*
X86800000Y-63057500D01*
X77822792Y-38800000D02*
X71927208Y-38800000D01*
X89150000Y-39032500D02*
X91567500Y-36615000D01*
X86800000Y-63105000D02*
X89055000Y-60850000D01*
X79242500Y-55500000D02*
X79100000Y-55500000D01*
X64615000Y-56885000D02*
X59780000Y-56885000D01*
X71927208Y-38800000D02*
X66450000Y-44277208D01*
X66450000Y-55050000D02*
X64615000Y-56885000D01*
X86800000Y-63057500D02*
X79242500Y-55500000D01*
X79050000Y-55450000D02*
X79050000Y-40027208D01*
X89055000Y-60850000D02*
X89100000Y-60850000D01*
X79100000Y-55500000D02*
X79050000Y-55450000D01*
X66450000Y-44277208D02*
X66450000Y-55050000D01*
X79050000Y-40027208D02*
X77822792Y-38800000D01*
%TO.N,Net-(A1-Pad21)*%
X88700000Y-54205000D02*
X88700000Y-38747500D01*
X79500000Y-39840812D02*
X78009188Y-38350000D01*
X63955000Y-54345000D02*
X59780000Y-54345000D01*
X66000000Y-52300000D02*
X63955000Y-54345000D01*
X86800000Y-56105000D02*
X79500000Y-48805000D01*
X78009188Y-38350000D02*
X71740812Y-38350000D01*
X79500000Y-48805000D02*
X79500000Y-39840812D01*
X71740812Y-38350000D02*
X66000000Y-44090812D01*
X88700000Y-38747500D02*
X86567500Y-36615000D01*
X86800000Y-56105000D02*
X88700000Y-54205000D01*
X66000000Y-44090812D02*
X66000000Y-52300000D01*
%TO.N,Net-(A1-Pad20)*%
X86800000Y-49105000D02*
X85072135Y-47377135D01*
X86800000Y-47350000D02*
X83950000Y-44500000D01*
X83950000Y-44500000D02*
X83950000Y-38997500D01*
X62445000Y-51805000D02*
X59780000Y-51805000D01*
X85072135Y-47377135D02*
X82665001Y-47377135D01*
X65550000Y-48700000D02*
X62445000Y-51805000D01*
X79950000Y-44662134D02*
X79950000Y-39654416D01*
X65550000Y-43904416D02*
X65550000Y-48700000D01*
X79950000Y-39654416D02*
X78195584Y-37900000D01*
X71554416Y-37900000D02*
X65550000Y-43904416D01*
X82665001Y-47377135D02*
X79950000Y-44662134D01*
X83950000Y-38997500D02*
X81567500Y-36615000D01*
X78195584Y-37900000D02*
X71554416Y-37900000D01*
X86800000Y-49105000D02*
X86800000Y-47350000D01*
%TO.N,Net-(A1-Pad24)*%
X67350000Y-44650000D02*
X67350000Y-57650000D01*
X77450000Y-39700000D02*
X72300000Y-39700000D01*
X63035000Y-61965000D02*
X59780000Y-61965000D01*
X97100000Y-48350000D02*
X99100000Y-46350000D01*
X90050000Y-73800000D02*
X90050000Y-51050000D01*
X78150000Y-40400000D02*
X77450000Y-39700000D01*
X72300000Y-39700000D02*
X67350000Y-44650000D01*
X90050000Y-51050000D02*
X92750000Y-48350000D01*
X92750000Y-48350000D02*
X97100000Y-48350000D01*
X67350000Y-57650000D02*
X63035000Y-61965000D01*
X86800000Y-77105000D02*
X86800000Y-77050000D01*
X86800000Y-77105000D02*
X78150000Y-68455000D01*
X86800000Y-77050000D02*
X90050000Y-73800000D01*
X99100000Y-46350000D02*
X99100000Y-39082500D01*
X78150000Y-68455000D02*
X78150000Y-40400000D01*
X99100000Y-39082500D02*
X101567500Y-36615000D01*
%TO.N,Net-(A1-Pad17)*%
X104659064Y-75515535D02*
X104709770Y-75515535D01*
X108200000Y-72025305D02*
X108200000Y-70700000D01*
X108200000Y-70700000D02*
X111910000Y-66990000D01*
X111910000Y-66990000D02*
X113015500Y-66990000D01*
X104709770Y-75515535D02*
X108200000Y-72025305D01*
%TO.N,Net-(R10-Pad1)*%
X107750000Y-59380000D02*
X112820000Y-64450000D01*
X112820000Y-64450000D02*
X113015500Y-64450000D01*
%TD*%
M02*
