%TF.GenerationSoftware,KiCad,Pcbnew,(6.0.6)*%
%TF.CreationDate,2022-06-23T13:36:09-07:00*%
%TF.ProjectId,KnightPCB,4b6e6967-6874-4504-9342-2e6b69636164,rev?*%
%TF.SameCoordinates,Original*%
%TF.FileFunction,Soldermask,Top*%
%TF.FilePolarity,Negative*%
%FSLAX46Y46*%
G04 Gerber Fmt 4.6, Leading zero omitted, Abs format (unit mm)*
G04 Created by KiCad (PCBNEW (6.0.6)) date 2022-06-23 13:36:09*
%MOMM*%
%LPD*%
G01*
G04 APERTURE LIST*
G04 Aperture macros list*
%AMRoundRect*
0 Rectangle with rounded corners*
0 $1 Rounding radius*
0 $2 $3 $4 $5 $6 $7 $8 $9 X,Y pos of 4 corners*
0 Add a 4 corners polygon primitive as box body*
4,1,4,$2,$3,$4,$5,$6,$7,$8,$9,$2,$3,0*
0 Add four circle primitives for the rounded corners*
1,1,$1+$1,$2,$3*
1,1,$1+$1,$4,$5*
1,1,$1+$1,$6,$7*
1,1,$1+$1,$8,$9*
0 Add four rect primitives between the rounded corners*
20,1,$1+$1,$2,$3,$4,$5,0*
20,1,$1+$1,$4,$5,$6,$7,0*
20,1,$1+$1,$6,$7,$8,$9,0*
20,1,$1+$1,$8,$9,$2,$3,0*%
G04 Aperture macros list end*
%ADD10C,7.500000*%
%ADD11RoundRect,0.250000X-0.350000X-0.625000X0.350000X-0.625000X0.350000X0.625000X-0.350000X0.625000X0*%
%ADD12O,1.200000X1.750000*%
%ADD13C,1.600000*%
%ADD14O,1.600000X1.600000*%
%ADD15R,1.308000X1.308000*%
%ADD16C,1.308000*%
%ADD17R,1.905000X2.000000*%
%ADD18O,1.905000X2.000000*%
%ADD19C,1.250000*%
%ADD20C,2.400000*%
%ADD21C,1.700000*%
%ADD22O,3.000000X1.700000*%
%ADD23O,1.700000X1.700000*%
%ADD24RoundRect,0.250000X0.350000X0.625000X-0.350000X0.625000X-0.350000X-0.625000X0.350000X-0.625000X0*%
G04 APERTURE END LIST*
D10*
%TO.C,H5*%
X96700000Y-69250000D03*
%TD*%
D11*
%TO.C,J6*%
X130400000Y-55050000D03*
D12*
X132400000Y-55050000D03*
%TD*%
D11*
%TO.C,J5*%
X122700000Y-41050000D03*
D12*
X124700000Y-41050000D03*
%TD*%
%TO.C,J4*%
X132400000Y-41050000D03*
D11*
X130400000Y-41050000D03*
%TD*%
%TO.C,J3*%
X122700000Y-48050000D03*
D12*
X124700000Y-48050000D03*
%TD*%
%TO.C,J2*%
X132400000Y-48050000D03*
D11*
X130400000Y-48050000D03*
%TD*%
%TO.C,J1*%
X122700000Y-55050000D03*
D12*
X124700000Y-55050000D03*
%TD*%
D13*
%TO.C,R10*%
X107750000Y-59380000D03*
D14*
X107750000Y-67000000D03*
%TD*%
D13*
%TO.C,R2*%
X96567500Y-36615000D03*
D14*
X96567500Y-44235000D03*
%TD*%
D15*
%TO.C,U1*%
X113015500Y-61910000D03*
D16*
X113015500Y-64450000D03*
X113015500Y-66990000D03*
X113015500Y-69530000D03*
X113015500Y-72070000D03*
X113015500Y-74610000D03*
X113015500Y-77150000D03*
X113015500Y-79690000D03*
X131049500Y-79690000D03*
X131049500Y-77150000D03*
X131049500Y-74610000D03*
X131049500Y-72070000D03*
X131049500Y-69530000D03*
X131049500Y-66990000D03*
X131049500Y-64450000D03*
X131049500Y-61910000D03*
%TD*%
D17*
%TO.C,Q1*%
X86800000Y-77105000D03*
D18*
X84260000Y-77105000D03*
X81720000Y-77105000D03*
%TD*%
D13*
%TO.C,R3*%
X91567500Y-36615000D03*
D14*
X91567500Y-44235000D03*
%TD*%
D13*
%TO.C,R4*%
X86567500Y-36615000D03*
D14*
X86567500Y-44235000D03*
%TD*%
D19*
%TO.C,H1*%
X57350000Y-36000000D03*
%TD*%
D13*
%TO.C,R5*%
X81567500Y-36615000D03*
D14*
X81567500Y-44235000D03*
%TD*%
D17*
%TO.C,Q5*%
X86800000Y-49105000D03*
D18*
X84260000Y-49105000D03*
X81720000Y-49105000D03*
%TD*%
D19*
%TO.C,H4*%
X136050000Y-81000000D03*
%TD*%
D17*
%TO.C,Q3*%
X86800000Y-63105000D03*
D18*
X84260000Y-63105000D03*
X81720000Y-63105000D03*
%TD*%
D13*
%TO.C,R1*%
X101567500Y-36615000D03*
D14*
X101567500Y-44235000D03*
%TD*%
D20*
%TO.C,SW1*%
X112850000Y-39200000D03*
X107550000Y-39200000D03*
%TD*%
D21*
%TO.C,A1*%
X76290000Y-77205000D03*
X75020000Y-77205000D03*
D22*
X75655000Y-77205000D03*
D23*
X75020000Y-74665000D03*
D22*
X75655000Y-74665000D03*
D21*
X76290000Y-74665000D03*
D23*
X75020000Y-72125000D03*
D22*
X75655000Y-72125000D03*
D21*
X76290000Y-72125000D03*
D23*
X75020000Y-69585000D03*
D21*
X76290000Y-69585000D03*
D22*
X75655000Y-69585000D03*
X75655000Y-67045000D03*
D23*
X75020000Y-67045000D03*
D21*
X76290000Y-67045000D03*
D23*
X75020000Y-64505000D03*
D21*
X76290000Y-64505000D03*
D22*
X75655000Y-64505000D03*
D23*
X75020000Y-61965000D03*
D22*
X75655000Y-61965000D03*
D21*
X76290000Y-61965000D03*
D23*
X75020000Y-59425000D03*
D21*
X76290000Y-59425000D03*
D22*
X75655000Y-59425000D03*
X75655000Y-56885000D03*
D21*
X76290000Y-56885000D03*
D23*
X75020000Y-56885000D03*
X75020000Y-54345000D03*
D22*
X75655000Y-54345000D03*
D21*
X76290000Y-54345000D03*
D23*
X75020000Y-51805000D03*
D22*
X75655000Y-51805000D03*
D21*
X76290000Y-51805000D03*
X76290000Y-49265000D03*
D22*
X75655000Y-49265000D03*
D23*
X75020000Y-49265000D03*
X75020000Y-46725000D03*
D22*
X75655000Y-46725000D03*
D21*
X76290000Y-46725000D03*
D22*
X75655000Y-44185000D03*
D23*
X75020000Y-44185000D03*
D21*
X76290000Y-44185000D03*
X76290000Y-41645000D03*
D23*
X75020000Y-41645000D03*
D22*
X75655000Y-41645000D03*
X59145000Y-41645000D03*
D21*
X58510000Y-41645000D03*
X59780000Y-41645000D03*
X58510000Y-44185000D03*
D22*
X59145000Y-44185000D03*
D23*
X59780000Y-44185000D03*
D22*
X59145000Y-46725000D03*
D21*
X58510000Y-46725000D03*
D23*
X59780000Y-46725000D03*
D21*
X58510000Y-49265000D03*
D22*
X59145000Y-49265000D03*
D23*
X59780000Y-49265000D03*
D21*
X58510000Y-51805000D03*
D23*
X59780000Y-51805000D03*
D22*
X59145000Y-51805000D03*
D21*
X58510000Y-54345000D03*
D23*
X59780000Y-54345000D03*
D22*
X59145000Y-54345000D03*
X59145000Y-56885000D03*
D23*
X59780000Y-56885000D03*
D21*
X58510000Y-56885000D03*
D22*
X59145000Y-59425000D03*
D21*
X58510000Y-59425000D03*
D23*
X59780000Y-59425000D03*
D22*
X59145000Y-61965000D03*
D23*
X59780000Y-61965000D03*
D21*
X58510000Y-61965000D03*
X58510000Y-64505000D03*
D23*
X59780000Y-64505000D03*
D22*
X59145000Y-64505000D03*
D21*
X58510000Y-67045000D03*
D22*
X59145000Y-67045000D03*
D23*
X59780000Y-67045000D03*
X59780000Y-69585000D03*
D21*
X58510000Y-69585000D03*
D22*
X59145000Y-69585000D03*
X59145000Y-72125000D03*
D21*
X58510000Y-72125000D03*
D23*
X59780000Y-72125000D03*
D21*
X58510000Y-74665000D03*
D23*
X59780000Y-74665000D03*
D22*
X59145000Y-74665000D03*
D23*
X59780000Y-77205000D03*
D21*
X58510000Y-77205000D03*
D22*
X59145000Y-77205000D03*
%TD*%
D17*
%TO.C,Q4*%
X86800000Y-56105000D03*
D18*
X84260000Y-56105000D03*
X81720000Y-56105000D03*
%TD*%
D19*
%TO.C,H2*%
X136050000Y-36000000D03*
%TD*%
D17*
%TO.C,Q2*%
X86800000Y-70105000D03*
D18*
X84260000Y-70105000D03*
X81720000Y-70105000D03*
%TD*%
D19*
%TO.C,H3*%
X57350000Y-81000000D03*
%TD*%
D24*
%TO.C,J0+12v1*%
X97500000Y-53600000D03*
D12*
X95500000Y-53600000D03*
%TD*%
M02*
