%TF.GenerationSoftware,KiCad,Pcbnew,(6.0.6)*%
%TF.CreationDate,2023-03-26T16:02:16-07:00*%
%TF.ProjectId,SimplePCB-JST,53696d70-6c65-4504-9342-2d4a53542e6b,rev?*%
%TF.SameCoordinates,Original*%
%TF.FileFunction,Copper,L1,Top*%
%TF.FilePolarity,Positive*%
%FSLAX46Y46*%
G04 Gerber Fmt 4.6, Leading zero omitted, Abs format (unit mm)*
G04 Created by KiCad (PCBNEW (6.0.6)) date 2023-03-26 16:02:16*
%MOMM*%
%LPD*%
G01*
G04 APERTURE LIST*
G04 Aperture macros list*
%AMRoundRect*
0 Rectangle with rounded corners*
0 $1 Rounding radius*
0 $2 $3 $4 $5 $6 $7 $8 $9 X,Y pos of 4 corners*
0 Add a 4 corners polygon primitive as box body*
4,1,4,$2,$3,$4,$5,$6,$7,$8,$9,$2,$3,0*
0 Add four circle primitives for the rounded corners*
1,1,$1+$1,$2,$3*
1,1,$1+$1,$4,$5*
1,1,$1+$1,$6,$7*
1,1,$1+$1,$8,$9*
0 Add four rect primitives between the rounded corners*
20,1,$1+$1,$2,$3,$4,$5,0*
20,1,$1+$1,$4,$5,$6,$7,0*
20,1,$1+$1,$6,$7,$8,$9,0*
20,1,$1+$1,$8,$9,$2,$3,0*%
G04 Aperture macros list end*
%TA.AperFunction,ComponentPad*%
%ADD10RoundRect,0.250000X-0.350000X-0.625000X0.350000X-0.625000X0.350000X0.625000X-0.350000X0.625000X0*%
%TD*%
%TA.AperFunction,ComponentPad*%
%ADD11O,1.200000X1.750000*%
%TD*%
%TA.AperFunction,ComponentPad*%
%ADD12C,1.600000*%
%TD*%
%TA.AperFunction,ComponentPad*%
%ADD13O,1.600000X1.600000*%
%TD*%
%TA.AperFunction,ComponentPad*%
%ADD14C,1.308000*%
%TD*%
%TA.AperFunction,ComponentPad*%
%ADD15R,1.308000X1.308000*%
%TD*%
%TA.AperFunction,ComponentPad*%
%ADD16R,1.905000X2.000000*%
%TD*%
%TA.AperFunction,ComponentPad*%
%ADD17O,1.905000X2.000000*%
%TD*%
%TA.AperFunction,ComponentPad*%
%ADD18C,2.400000*%
%TD*%
%TA.AperFunction,SMDPad,CuDef*%
%ADD19O,3.000000X1.700000*%
%TD*%
%TA.AperFunction,ComponentPad*%
%ADD20C,1.700000*%
%TD*%
%TA.AperFunction,ComponentPad*%
%ADD21O,1.700000X1.700000*%
%TD*%
%TA.AperFunction,ViaPad*%
%ADD22C,0.800000*%
%TD*%
%TA.AperFunction,Conductor*%
%ADD23C,0.250000*%
%TD*%
G04 APERTURE END LIST*
D10*
%TO.P,J0+12v1,1,Pin_1*%
%TO.N,GND*%
X80350000Y-35750000D03*
D11*
%TO.P,J0+12v1,2,Pin_2*%
%TO.N,+12V*%
X82350000Y-35750000D03*
%TD*%
D12*
%TO.P,R10,1*%
%TO.N,Net-(R10-Pad1)*%
X87325000Y-63465000D03*
D13*
%TO.P,R10,2*%
%TO.N,Net-(A1-Pad16)*%
X87325000Y-71085000D03*
%TD*%
D14*
%TO.P,U1,4,DAC_R*%
%TO.N,unconnected-(U1-Pad4)*%
X79665500Y-49980000D03*
%TO.P,U1,5,DAC_L*%
%TO.N,unconnected-(U1-Pad5)*%
X79665500Y-52520000D03*
%TO.P,U1,13,ADKEY2*%
%TO.N,unconnected-(U1-Pad13)*%
X97699500Y-49980000D03*
%TO.P,U1,12,ADKEY1*%
%TO.N,unconnected-(U1-Pad12)*%
X97699500Y-52520000D03*
%TO.P,U1,6,SPK1*%
%TO.N,Net-(J6-Pad1)*%
X79665500Y-55060000D03*
%TO.P,U1,3,TX*%
%TO.N,Net-(A1-Pad17)*%
X79665500Y-47440000D03*
%TO.P,U1,14,USB+*%
%TO.N,unconnected-(U1-Pad14)*%
X97699500Y-47440000D03*
%TO.P,U1,11,IO2*%
%TO.N,unconnected-(U1-Pad11)*%
X97699500Y-55060000D03*
%TO.P,U1,2,RX*%
%TO.N,Net-(R10-Pad1)*%
X79665500Y-44900000D03*
%TO.P,U1,15,USB-*%
%TO.N,unconnected-(U1-Pad15)*%
X97699500Y-44900000D03*
%TO.P,U1,7,GND*%
%TO.N,GND*%
X79665500Y-57600000D03*
%TO.P,U1,10,GND*%
X97699500Y-57600000D03*
D15*
%TO.P,U1,1,VCC*%
%TO.N,Net-(A1-Pad2)*%
X79665500Y-42360000D03*
D14*
%TO.P,U1,16,BUSY*%
%TO.N,unconnected-(U1-Pad16)*%
X97699500Y-42360000D03*
%TO.P,U1,8,SPK2*%
%TO.N,Net-(J6-Pad2)*%
X79665500Y-60140000D03*
%TO.P,U1,9,IO1*%
%TO.N,unconnected-(U1-Pad9)*%
X97699500Y-60140000D03*
%TD*%
D16*
%TO.P,Q1,1,G*%
%TO.N,Net-(A1-Pad24)*%
X75120000Y-29765000D03*
D17*
%TO.P,Q1,2,D*%
%TO.N,Net-(J1-Pad1)*%
X77660000Y-29765000D03*
%TO.P,Q1,3,S*%
%TO.N,GND*%
X80200000Y-29765000D03*
%TD*%
D10*
%TO.P,J1,1,Pin_1*%
%TO.N,Net-(J1-Pad1)*%
X87650000Y-35650000D03*
D11*
%TO.P,J1,2,Pin_2*%
%TO.N,Net-(A1-Pad15)*%
X89650000Y-35650000D03*
%TD*%
D12*
%TO.P,R1,1*%
%TO.N,Net-(A1-Pad24)*%
X82960000Y-71085000D03*
D13*
%TO.P,R1,2*%
%TO.N,GND*%
X82960000Y-63465000D03*
%TD*%
D18*
%TO.P,SW1,1,A*%
%TO.N,+12V*%
X62020000Y-35350000D03*
%TO.P,SW1,2,B*%
%TO.N,Net-(A1-Pad15)*%
X67320000Y-35350000D03*
%TD*%
D19*
%TO.P,A1,11,A7*%
%TO.N,unconnected-(A1-Pad11)*%
X75655000Y-51805000D03*
D20*
%TO.P,A1,12,+5V*%
%TO.N,unconnected-(A1-Pad12)*%
X76290000Y-49265000D03*
D19*
%TO.P,A1,3,AREF*%
%TO.N,unconnected-(A1-Pad3)*%
X75655000Y-72125000D03*
%TO.P,A1,5,A1*%
%TO.N,unconnected-(A1-Pad5)*%
X75655000Y-67045000D03*
%TO.P,A1,13,RESET*%
%TO.N,unconnected-(A1-Pad13)*%
X75655000Y-46725000D03*
%TO.P,A1,12,+5V*%
%TO.N,unconnected-(A1-Pad12)*%
X75655000Y-49265000D03*
D20*
%TO.P,A1,7,A3*%
%TO.N,unconnected-(A1-Pad7)*%
X76290000Y-61965000D03*
D21*
%TO.P,A1,13,RESET*%
%TO.N,unconnected-(A1-Pad13)*%
X75020000Y-46725000D03*
D20*
%TO.P,A1,1,D13~*%
%TO.N,unconnected-(A1-Pad1)*%
X76290000Y-77205000D03*
D21*
%TO.P,A1,9,A5*%
%TO.N,unconnected-(A1-Pad9)*%
X75020000Y-56885000D03*
%TO.P,A1,8,A4*%
%TO.N,unconnected-(A1-Pad8)*%
X75020000Y-59425000D03*
D20*
%TO.P,A1,4,A0*%
%TO.N,unconnected-(A1-Pad4)*%
X76290000Y-69585000D03*
%TO.P,A1,8,A4*%
%TO.N,unconnected-(A1-Pad8)*%
X76290000Y-59425000D03*
%TO.P,A1,9,A5*%
%TO.N,unconnected-(A1-Pad9)*%
X76290000Y-56885000D03*
D19*
%TO.P,A1,1,D13~*%
%TO.N,unconnected-(A1-Pad1)*%
X75655000Y-77205000D03*
%TO.P,A1,14,GND*%
%TO.N,GND*%
X75655000Y-44185000D03*
D20*
%TO.P,A1,6,A2*%
%TO.N,unconnected-(A1-Pad6)*%
X76290000Y-64505000D03*
%TO.P,A1,10,A6*%
%TO.N,unconnected-(A1-Pad10)*%
X76290000Y-54345000D03*
D21*
%TO.P,A1,7,A3*%
%TO.N,unconnected-(A1-Pad7)*%
X75020000Y-61965000D03*
D19*
%TO.P,A1,4,A0*%
%TO.N,unconnected-(A1-Pad4)*%
X75655000Y-69585000D03*
D21*
%TO.P,A1,10,A6*%
%TO.N,unconnected-(A1-Pad10)*%
X75020000Y-54345000D03*
%TO.P,A1,11,A7*%
%TO.N,unconnected-(A1-Pad11)*%
X75020000Y-51805000D03*
D19*
%TO.P,A1,10,A6*%
%TO.N,unconnected-(A1-Pad10)*%
X75655000Y-54345000D03*
%TO.P,A1,9,A5*%
%TO.N,unconnected-(A1-Pad9)*%
X75655000Y-56885000D03*
D20*
%TO.P,A1,11,A7*%
%TO.N,unconnected-(A1-Pad11)*%
X76290000Y-51805000D03*
D21*
%TO.P,A1,6,A2*%
%TO.N,unconnected-(A1-Pad6)*%
X75020000Y-64505000D03*
%TO.P,A1,14,GND*%
%TO.N,GND*%
X75020000Y-44185000D03*
%TO.P,A1,5,A1*%
%TO.N,unconnected-(A1-Pad5)*%
X75020000Y-67045000D03*
%TO.P,A1,4,A0*%
%TO.N,unconnected-(A1-Pad4)*%
X75020000Y-69585000D03*
%TO.P,A1,3,AREF*%
%TO.N,unconnected-(A1-Pad3)*%
X75020000Y-72125000D03*
%TO.P,A1,2,+3V3*%
%TO.N,Net-(A1-Pad2)*%
X75020000Y-74665000D03*
D20*
%TO.P,A1,1,D13~*%
%TO.N,unconnected-(A1-Pad1)*%
X75020000Y-77205000D03*
D19*
%TO.P,A1,7,A3*%
%TO.N,unconnected-(A1-Pad7)*%
X75655000Y-61965000D03*
D21*
%TO.P,A1,15,VIN*%
%TO.N,Net-(A1-Pad15)*%
X75020000Y-41645000D03*
D19*
%TO.P,A1,6,A2*%
%TO.N,unconnected-(A1-Pad6)*%
X75655000Y-64505000D03*
D21*
%TO.P,A1,12,+5V*%
%TO.N,unconnected-(A1-Pad12)*%
X75020000Y-49265000D03*
D20*
%TO.P,A1,14,GND*%
%TO.N,GND*%
X76290000Y-44185000D03*
%TO.P,A1,5,A1*%
%TO.N,unconnected-(A1-Pad5)*%
X76290000Y-67045000D03*
%TO.P,A1,15,VIN*%
%TO.N,Net-(A1-Pad15)*%
X76290000Y-41645000D03*
D19*
%TO.P,A1,8,A4*%
%TO.N,unconnected-(A1-Pad8)*%
X75655000Y-59425000D03*
%TO.P,A1,15,VIN*%
%TO.N,Net-(A1-Pad15)*%
X75655000Y-41645000D03*
%TO.P,A1,2,+3V3*%
%TO.N,Net-(A1-Pad2)*%
X75655000Y-74665000D03*
D20*
X76290000Y-74665000D03*
%TO.P,A1,13,RESET*%
%TO.N,unconnected-(A1-Pad13)*%
X76290000Y-46725000D03*
%TO.P,A1,3,AREF*%
%TO.N,unconnected-(A1-Pad3)*%
X76290000Y-72125000D03*
D19*
%TO.P,A1,30,CIPO*%
%TO.N,unconnected-(A1-Pad30)*%
X59145000Y-77205000D03*
%TO.P,A1,29,CIPI*%
%TO.N,unconnected-(A1-Pad29)*%
X59145000Y-74665000D03*
%TO.P,A1,28,~D10*%
%TO.N,unconnected-(A1-Pad28)*%
X59145000Y-72125000D03*
%TO.P,A1,27,~D9*%
%TO.N,unconnected-(A1-Pad27)*%
X59145000Y-69585000D03*
%TO.P,A1,26,~D8*%
%TO.N,unconnected-(A1-Pad26)*%
X59145000Y-67045000D03*
%TO.P,A1,25,~D7*%
%TO.N,unconnected-(A1-Pad25)*%
X59145000Y-64505000D03*
%TO.P,A1,24,~D6*%
%TO.N,Net-(A1-Pad24)*%
X59145000Y-61965000D03*
%TO.P,A1,23,~D5*%
%TO.N,unconnected-(A1-Pad23)*%
X59145000Y-59425000D03*
%TO.P,A1,22,~D4*%
%TO.N,unconnected-(A1-Pad22)*%
X59145000Y-56885000D03*
%TO.P,A1,21,~D3*%
%TO.N,unconnected-(A1-Pad21)*%
X59145000Y-54345000D03*
%TO.P,A1,20,~D2*%
%TO.N,unconnected-(A1-Pad20)*%
X59145000Y-51805000D03*
%TO.P,A1,19,GND*%
%TO.N,GND*%
X59145000Y-49265000D03*
%TO.P,A1,18,RESET*%
%TO.N,unconnected-(A1-Pad18)*%
X59145000Y-46725000D03*
%TO.P,A1,17,RX*%
%TO.N,Net-(A1-Pad17)*%
X59145000Y-44185000D03*
D20*
%TO.P,A1,29,CIPI*%
%TO.N,unconnected-(A1-Pad29)*%
X58510000Y-74665000D03*
%TO.P,A1,30,CIPO*%
%TO.N,unconnected-(A1-Pad30)*%
X58510000Y-77205000D03*
%TO.P,A1,28,~D10*%
%TO.N,unconnected-(A1-Pad28)*%
X58510000Y-72125000D03*
%TO.P,A1,25,~D7*%
%TO.N,unconnected-(A1-Pad25)*%
X58510000Y-64505000D03*
%TO.P,A1,27,~D9*%
%TO.N,unconnected-(A1-Pad27)*%
X58510000Y-69585000D03*
%TO.P,A1,26,~D8*%
%TO.N,unconnected-(A1-Pad26)*%
X58510000Y-67045000D03*
%TO.P,A1,23,~D5*%
%TO.N,unconnected-(A1-Pad23)*%
X58510000Y-59425000D03*
%TO.P,A1,24,~D6*%
%TO.N,Net-(A1-Pad24)*%
X58510000Y-61965000D03*
%TO.P,A1,22,~D4*%
%TO.N,unconnected-(A1-Pad22)*%
X58510000Y-56885000D03*
%TO.P,A1,20,~D2*%
%TO.N,unconnected-(A1-Pad20)*%
X58510000Y-51805000D03*
%TO.P,A1,21,~D3*%
%TO.N,unconnected-(A1-Pad21)*%
X58510000Y-54345000D03*
%TO.P,A1,19,GND*%
%TO.N,GND*%
X58510000Y-49265000D03*
%TO.P,A1,18,RESET*%
%TO.N,unconnected-(A1-Pad18)*%
X58510000Y-46725000D03*
%TO.P,A1,17,RX*%
%TO.N,Net-(A1-Pad17)*%
X58510000Y-44185000D03*
D19*
%TO.P,A1,16,TX*%
%TO.N,Net-(A1-Pad16)*%
X59145000Y-41645000D03*
D20*
X58510000Y-41645000D03*
X59780000Y-41645000D03*
D21*
%TO.P,A1,17,RX*%
%TO.N,Net-(A1-Pad17)*%
X59780000Y-44185000D03*
%TO.P,A1,18,RESET*%
%TO.N,unconnected-(A1-Pad18)*%
X59780000Y-46725000D03*
%TO.P,A1,19,GND*%
%TO.N,GND*%
X59780000Y-49265000D03*
%TO.P,A1,20,~D2*%
%TO.N,unconnected-(A1-Pad20)*%
X59780000Y-51805000D03*
%TO.P,A1,21,~D3*%
%TO.N,unconnected-(A1-Pad21)*%
X59780000Y-54345000D03*
%TO.P,A1,22,~D4*%
%TO.N,unconnected-(A1-Pad22)*%
X59780000Y-56885000D03*
%TO.P,A1,23,~D5*%
%TO.N,unconnected-(A1-Pad23)*%
X59780000Y-59425000D03*
%TO.P,A1,24,~D6*%
%TO.N,Net-(A1-Pad24)*%
X59780000Y-61965000D03*
%TO.P,A1,25,~D7*%
%TO.N,unconnected-(A1-Pad25)*%
X59780000Y-64505000D03*
%TO.P,A1,26,~D8*%
%TO.N,unconnected-(A1-Pad26)*%
X59780000Y-67045000D03*
%TO.P,A1,27,~D9*%
%TO.N,unconnected-(A1-Pad27)*%
X59780000Y-69585000D03*
%TO.P,A1,28,~D10*%
%TO.N,unconnected-(A1-Pad28)*%
X59780000Y-72125000D03*
%TO.P,A1,29,CIPI*%
%TO.N,unconnected-(A1-Pad29)*%
X59780000Y-74665000D03*
%TO.P,A1,30,CIPO*%
%TO.N,unconnected-(A1-Pad30)*%
X59780000Y-77205000D03*
%TD*%
D10*
%TO.P,J6,1,Pin_1*%
%TO.N,Net-(J6-Pad1)*%
X84070000Y-77850000D03*
D11*
%TO.P,J6,2,Pin_2*%
%TO.N,Net-(J6-Pad2)*%
X86070000Y-77850000D03*
%TD*%
D22*
%TO.N,Net-(J6-Pad2)*%
X85720000Y-60140000D03*
%TO.N,Net-(J6-Pad1)*%
X84040000Y-55430000D03*
%TO.N,Net-(A1-Pad17)*%
X62230000Y-46960000D03*
%TD*%
D23*
%TO.N,Net-(J6-Pad2)*%
X79665500Y-60140000D02*
X85720000Y-60140000D01*
%TO.N,Net-(J6-Pad1)*%
X83670000Y-55060000D02*
X79665500Y-55060000D01*
X84040000Y-55430000D02*
X83670000Y-55060000D01*
%TO.N,GND*%
X78310000Y-58955500D02*
X79665500Y-57600000D01*
X78310000Y-62980000D02*
X78310000Y-58955500D01*
X78795000Y-63465000D02*
X78310000Y-62980000D01*
X82960000Y-63465000D02*
X78795000Y-63465000D01*
%TO.N,Net-(R10-Pad1)*%
X87325000Y-51825000D02*
X80370000Y-44870000D01*
X87325000Y-63465000D02*
X87325000Y-51825000D01*
%TO.N,GND*%
X88930000Y-61520000D02*
X92850000Y-57600000D01*
X92850000Y-57600000D02*
X97699500Y-57600000D01*
X87720000Y-65160000D02*
X88930000Y-63950000D01*
X84655000Y-65160000D02*
X87720000Y-65160000D01*
X82960000Y-63465000D02*
X84655000Y-65160000D01*
X88930000Y-63950000D02*
X88930000Y-61520000D01*
%TO.N,Net-(A1-Pad17)*%
X77160000Y-50500000D02*
X79560000Y-48100000D01*
X72120000Y-50500000D02*
X77160000Y-50500000D01*
X68580000Y-46960000D02*
X72120000Y-50500000D01*
X62230000Y-46960000D02*
X68580000Y-46960000D01*
%TO.N,Net-(A1-Pad24)*%
X76278299Y-80140000D02*
X80590000Y-75828299D01*
X60970000Y-64831701D02*
X76278299Y-80140000D01*
X80590000Y-73455000D02*
X82960000Y-71085000D01*
X59780000Y-61965000D02*
X60970000Y-63155000D01*
X60970000Y-63155000D02*
X60970000Y-64831701D01*
X80590000Y-75828299D02*
X80590000Y-73455000D01*
%TO.N,Net-(A1-Pad16)*%
X85120000Y-68880000D02*
X87325000Y-71085000D01*
X78560000Y-70780000D02*
X80460000Y-68880000D01*
X73683556Y-70780000D02*
X78560000Y-70780000D01*
X80460000Y-68880000D02*
X85120000Y-68880000D01*
X60970000Y-42835000D02*
X60970000Y-58066444D01*
X60970000Y-58066444D02*
X73683556Y-70780000D01*
X59780000Y-41645000D02*
X60970000Y-42835000D01*
%TO.N,Net-(A1-Pad15)*%
X76290000Y-41645000D02*
X77140000Y-40795000D01*
X75020000Y-41645000D02*
X76290000Y-41645000D01*
X73615000Y-41645000D02*
X75020000Y-41645000D01*
X67320000Y-35350000D02*
X73615000Y-41645000D01*
X77140000Y-40795000D02*
X84505000Y-40795000D01*
X84505000Y-40795000D02*
X89650000Y-35650000D01*
%TO.N,+12V*%
X62020000Y-35350000D02*
X63990000Y-33380000D01*
X63990000Y-33380000D02*
X80255000Y-33380000D01*
X80255000Y-33380000D02*
X82350000Y-35475000D01*
X82350000Y-35475000D02*
X82350000Y-35750000D01*
%TO.N,Net-(J1-Pad1)*%
X77660000Y-29765000D02*
X81185000Y-33290000D01*
X81185000Y-33290000D02*
X85290000Y-33290000D01*
X85290000Y-33290000D02*
X87650000Y-35650000D01*
%TO.N,Net-(A1-Pad24)*%
X65448324Y-29765000D02*
X75120000Y-29765000D01*
X59780000Y-61965000D02*
X58545000Y-61965000D01*
X57320000Y-37893324D02*
X65448324Y-29765000D01*
X58545000Y-61965000D02*
X57320000Y-60740000D01*
X57320000Y-60740000D02*
X57320000Y-37893324D01*
%TD*%
M02*
