M48
; DRILL file {KiCad (6.0.6)} date Sun Mar 26 16:02:02 2023
; FORMAT={-:-/ absolute / inch / decimal}
; #@! TF.CreationDate,2023-03-26T16:02:02-07:00
; #@! TF.GenerationSoftware,Kicad,Pcbnew,(6.0.6)
; #@! TF.FileFunction,MixedPlating,1,2
FMAT,2
INCH
; #@! TA.AperFunction,Plated,PTH,ViaDrill
T1C0.0157
; #@! TA.AperFunction,Plated,PTH,ComponentDrill
T2C0.0295
; #@! TA.AperFunction,Plated,PTH,ComponentDrill
T3C0.0315
; #@! TA.AperFunction,Plated,PTH,ComponentDrill
T4C0.0394
; #@! TA.AperFunction,Plated,PTH,ComponentDrill
T5C0.0433
; #@! TA.AperFunction,Plated,PTH,ComponentDrill
T6C0.0472
; #@! TA.AperFunction,NonPlated,NPTH,ComponentDrill
T7C0.0492
%
G90
G05
T1
X2.45Y-1.8488
X3.3087Y-2.1823
X3.3748Y-2.3677
T2
X3.1634Y-1.4075
X3.2421Y-1.4075
X3.3098Y-3.065
X3.3886Y-3.065
X3.4508Y-1.4035
X3.5295Y-1.4035
T3
X3.1364Y-1.6677
X3.1364Y-1.7677
X3.1364Y-1.8677
X3.1364Y-1.9677
X3.1364Y-2.0677
X3.1364Y-2.1677
X3.1364Y-2.2677
X3.1364Y-2.3677
X3.2661Y-2.4986
X3.2661Y-2.7986
X3.438Y-2.4986
X3.438Y-2.7986
X3.8464Y-1.6677
X3.8464Y-1.7677
X3.8464Y-1.8677
X3.8464Y-1.9677
X3.8464Y-2.0677
X3.8464Y-2.1677
X3.8464Y-2.2677
X3.8464Y-2.3677
T4
X2.3035Y-1.6396
X2.3035Y-1.7396
X2.3035Y-1.8396
X2.3035Y-1.9396
X2.3035Y-2.0396
X2.3035Y-2.1396
X2.3035Y-2.2396
X2.3035Y-2.3396
X2.3035Y-2.4396
X2.3035Y-2.5396
X2.3035Y-2.6396
X2.3035Y-2.7396
X2.3035Y-2.8396
X2.3035Y-2.9396
X2.3035Y-3.0396
X2.3535Y-1.6396
X2.3535Y-1.7396
X2.3535Y-1.8396
X2.3535Y-1.9396
X2.3535Y-2.0396
X2.3535Y-2.1396
X2.3535Y-2.2396
X2.3535Y-2.3396
X2.3535Y-2.4396
X2.3535Y-2.5396
X2.3535Y-2.6396
X2.3535Y-2.7396
X2.3535Y-2.8396
X2.3535Y-2.9396
X2.3535Y-3.0396
X2.9535Y-1.6396
X2.9535Y-1.7396
X2.9535Y-1.8396
X2.9535Y-1.9396
X2.9535Y-2.0396
X2.9535Y-2.1396
X2.9535Y-2.2396
X2.9535Y-2.3396
X2.9535Y-2.4396
X2.9535Y-2.5396
X2.9535Y-2.6396
X2.9535Y-2.7396
X2.9535Y-2.8396
X2.9535Y-2.9396
X2.9535Y-3.0396
X3.0035Y-1.6396
X3.0035Y-1.7396
X3.0035Y-1.8396
X3.0035Y-1.9396
X3.0035Y-2.0396
X3.0035Y-2.1396
X3.0035Y-2.2396
X3.0035Y-2.3396
X3.0035Y-2.4396
X3.0035Y-2.5396
X3.0035Y-2.6396
X3.0035Y-2.7396
X3.0035Y-2.8396
X3.0035Y-2.9396
X3.0035Y-3.0396
T5
X2.9575Y-1.1719
X3.0575Y-1.1719
X3.1575Y-1.1719
T6
X2.4417Y-1.3917
X2.6504Y-1.3917
T7
X2.9496Y-1.3969
X3.1228Y-3.1543
X3.7795Y-1.4319
T0
M30
