%TF.GenerationSoftware,KiCad,Pcbnew,(6.0.6)*%
%TF.CreationDate,2023-03-26T16:02:17-07:00*%
%TF.ProjectId,SimplePCB-JST,53696d70-6c65-4504-9342-2d4a53542e6b,rev?*%
%TF.SameCoordinates,Original*%
%TF.FileFunction,Legend,Top*%
%TF.FilePolarity,Positive*%
%FSLAX46Y46*%
G04 Gerber Fmt 4.6, Leading zero omitted, Abs format (unit mm)*
G04 Created by KiCad (PCBNEW (6.0.6)) date 2023-03-26 16:02:17*
%MOMM*%
%LPD*%
G01*
G04 APERTURE LIST*
%ADD10C,0.150000*%
%ADD11C,0.120000*%
%ADD12C,0.127000*%
%ADD13C,0.200000*%
G04 APERTURE END LIST*
D10*
%TO.C,J0+12v1*%
X77618095Y-32152380D02*
X77618095Y-32866666D01*
X77570476Y-33009523D01*
X77475238Y-33104761D01*
X77332380Y-33152380D01*
X77237142Y-33152380D01*
X78284761Y-32152380D02*
X78380000Y-32152380D01*
X78475238Y-32200000D01*
X78522857Y-32247619D01*
X78570476Y-32342857D01*
X78618095Y-32533333D01*
X78618095Y-32771428D01*
X78570476Y-32961904D01*
X78522857Y-33057142D01*
X78475238Y-33104761D01*
X78380000Y-33152380D01*
X78284761Y-33152380D01*
X78189523Y-33104761D01*
X78141904Y-33057142D01*
X78094285Y-32961904D01*
X78046666Y-32771428D01*
X78046666Y-32533333D01*
X78094285Y-32342857D01*
X78141904Y-32247619D01*
X78189523Y-32200000D01*
X78284761Y-32152380D01*
X79046666Y-32771428D02*
X79808571Y-32771428D01*
X79427619Y-33152380D02*
X79427619Y-32390476D01*
X80808571Y-33152380D02*
X80237142Y-33152380D01*
X80522857Y-33152380D02*
X80522857Y-32152380D01*
X80427619Y-32295238D01*
X80332380Y-32390476D01*
X80237142Y-32438095D01*
X81189523Y-32247619D02*
X81237142Y-32200000D01*
X81332380Y-32152380D01*
X81570476Y-32152380D01*
X81665714Y-32200000D01*
X81713333Y-32247619D01*
X81760952Y-32342857D01*
X81760952Y-32438095D01*
X81713333Y-32580952D01*
X81141904Y-33152380D01*
X81760952Y-33152380D01*
X82094285Y-32485714D02*
X82332380Y-33152380D01*
X82570476Y-32485714D01*
X83475238Y-33152380D02*
X82903809Y-33152380D01*
X83189523Y-33152380D02*
X83189523Y-32152380D01*
X83094285Y-32295238D01*
X82999047Y-32390476D01*
X82903809Y-32438095D01*
%TO.C,R10*%
X87752380Y-67822857D02*
X87276190Y-68156190D01*
X87752380Y-68394285D02*
X86752380Y-68394285D01*
X86752380Y-68013333D01*
X86800000Y-67918095D01*
X86847619Y-67870476D01*
X86942857Y-67822857D01*
X87085714Y-67822857D01*
X87180952Y-67870476D01*
X87228571Y-67918095D01*
X87276190Y-68013333D01*
X87276190Y-68394285D01*
X87752380Y-66870476D02*
X87752380Y-67441904D01*
X87752380Y-67156190D02*
X86752380Y-67156190D01*
X86895238Y-67251428D01*
X86990476Y-67346666D01*
X87038095Y-67441904D01*
X86752380Y-66251428D02*
X86752380Y-66156190D01*
X86800000Y-66060952D01*
X86847619Y-66013333D01*
X86942857Y-65965714D01*
X87133333Y-65918095D01*
X87371428Y-65918095D01*
X87561904Y-65965714D01*
X87657142Y-66013333D01*
X87704761Y-66060952D01*
X87752380Y-66156190D01*
X87752380Y-66251428D01*
X87704761Y-66346666D01*
X87657142Y-66394285D01*
X87561904Y-66441904D01*
X87371428Y-66489523D01*
X87133333Y-66489523D01*
X86942857Y-66441904D01*
X86847619Y-66394285D01*
X86800000Y-66346666D01*
X86752380Y-66251428D01*
%TO.C,U1*%
X81320595Y-39909880D02*
X81320595Y-40719404D01*
X81368214Y-40814642D01*
X81415833Y-40862261D01*
X81511071Y-40909880D01*
X81701547Y-40909880D01*
X81796785Y-40862261D01*
X81844404Y-40814642D01*
X81892023Y-40719404D01*
X81892023Y-39909880D01*
X82892023Y-40909880D02*
X82320595Y-40909880D01*
X82606309Y-40909880D02*
X82606309Y-39909880D01*
X82511071Y-40052738D01*
X82415833Y-40147976D01*
X82320595Y-40195595D01*
%TO.C,Q1*%
X77564761Y-26042619D02*
X77469523Y-25995000D01*
X77374285Y-25899761D01*
X77231428Y-25756904D01*
X77136190Y-25709285D01*
X77040952Y-25709285D01*
X77088571Y-25947380D02*
X76993333Y-25899761D01*
X76898095Y-25804523D01*
X76850476Y-25614047D01*
X76850476Y-25280714D01*
X76898095Y-25090238D01*
X76993333Y-24995000D01*
X77088571Y-24947380D01*
X77279047Y-24947380D01*
X77374285Y-24995000D01*
X77469523Y-25090238D01*
X77517142Y-25280714D01*
X77517142Y-25614047D01*
X77469523Y-25804523D01*
X77374285Y-25899761D01*
X77279047Y-25947380D01*
X77088571Y-25947380D01*
X78469523Y-25947380D02*
X77898095Y-25947380D01*
X78183809Y-25947380D02*
X78183809Y-24947380D01*
X78088571Y-25090238D01*
X77993333Y-25185476D01*
X77898095Y-25233095D01*
%TO.C,H1*%
X96538095Y-34572380D02*
X96538095Y-33572380D01*
X96538095Y-34048571D02*
X97109523Y-34048571D01*
X97109523Y-34572380D02*
X97109523Y-33572380D01*
X98109523Y-34572380D02*
X97538095Y-34572380D01*
X97823809Y-34572380D02*
X97823809Y-33572380D01*
X97728571Y-33715238D01*
X97633333Y-33810476D01*
X97538095Y-33858095D01*
%TO.C,J1*%
X92736666Y-33842380D02*
X92736666Y-34556666D01*
X92689047Y-34699523D01*
X92593809Y-34794761D01*
X92450952Y-34842380D01*
X92355714Y-34842380D01*
X93736666Y-34842380D02*
X93165238Y-34842380D01*
X93450952Y-34842380D02*
X93450952Y-33842380D01*
X93355714Y-33985238D01*
X93260476Y-34080476D01*
X93165238Y-34128095D01*
%TO.C,H4*%
X79808095Y-78622380D02*
X79808095Y-77622380D01*
X79808095Y-78098571D02*
X80379523Y-78098571D01*
X80379523Y-78622380D02*
X80379523Y-77622380D01*
X81284285Y-77955714D02*
X81284285Y-78622380D01*
X81046190Y-77574761D02*
X80808095Y-78289047D01*
X81427142Y-78289047D01*
%TO.C,R1*%
X80779880Y-71516666D02*
X80303690Y-71850000D01*
X80779880Y-72088095D02*
X79779880Y-72088095D01*
X79779880Y-71707142D01*
X79827500Y-71611904D01*
X79875119Y-71564285D01*
X79970357Y-71516666D01*
X80113214Y-71516666D01*
X80208452Y-71564285D01*
X80256071Y-71611904D01*
X80303690Y-71707142D01*
X80303690Y-72088095D01*
X80779880Y-70564285D02*
X80779880Y-71135714D01*
X80779880Y-70850000D02*
X79779880Y-70850000D01*
X79922738Y-70945238D01*
X80017976Y-71040476D01*
X80065595Y-71135714D01*
%TO.C,SW1*%
X58074761Y-29983333D02*
X58122380Y-29840476D01*
X58122380Y-29602380D01*
X58074761Y-29507142D01*
X58027142Y-29459523D01*
X57931904Y-29411904D01*
X57836666Y-29411904D01*
X57741428Y-29459523D01*
X57693809Y-29507142D01*
X57646190Y-29602380D01*
X57598571Y-29792857D01*
X57550952Y-29888095D01*
X57503333Y-29935714D01*
X57408095Y-29983333D01*
X57312857Y-29983333D01*
X57217619Y-29935714D01*
X57170000Y-29888095D01*
X57122380Y-29792857D01*
X57122380Y-29554761D01*
X57170000Y-29411904D01*
X57122380Y-29078571D02*
X58122380Y-28840476D01*
X57408095Y-28650000D01*
X58122380Y-28459523D01*
X57122380Y-28221428D01*
X58122380Y-27316666D02*
X58122380Y-27888095D01*
X58122380Y-27602380D02*
X57122380Y-27602380D01*
X57265238Y-27697619D01*
X57360476Y-27792857D01*
X57408095Y-27888095D01*
%TO.C,H2*%
X71918095Y-34722380D02*
X71918095Y-33722380D01*
X71918095Y-34198571D02*
X72489523Y-34198571D01*
X72489523Y-34722380D02*
X72489523Y-33722380D01*
X72918095Y-33817619D02*
X72965714Y-33770000D01*
X73060952Y-33722380D01*
X73299047Y-33722380D01*
X73394285Y-33770000D01*
X73441904Y-33817619D01*
X73489523Y-33912857D01*
X73489523Y-34008095D01*
X73441904Y-34150952D01*
X72870476Y-34722380D01*
X73489523Y-34722380D01*
%TO.C,J6*%
X86716666Y-74192380D02*
X86716666Y-74906666D01*
X86669047Y-75049523D01*
X86573809Y-75144761D01*
X86430952Y-75192380D01*
X86335714Y-75192380D01*
X87621428Y-74192380D02*
X87430952Y-74192380D01*
X87335714Y-74240000D01*
X87288095Y-74287619D01*
X87192857Y-74430476D01*
X87145238Y-74620952D01*
X87145238Y-75001904D01*
X87192857Y-75097142D01*
X87240476Y-75144761D01*
X87335714Y-75192380D01*
X87526190Y-75192380D01*
X87621428Y-75144761D01*
X87669047Y-75097142D01*
X87716666Y-75001904D01*
X87716666Y-74763809D01*
X87669047Y-74668571D01*
X87621428Y-74620952D01*
X87526190Y-74573333D01*
X87335714Y-74573333D01*
X87240476Y-74620952D01*
X87192857Y-74668571D01*
X87145238Y-74763809D01*
D11*
%TO.C,J0+12v1*%
X79750000Y-33740000D02*
X79750000Y-33940000D01*
X78900000Y-38050000D02*
X83800000Y-38050000D01*
X83800000Y-38050000D02*
X83800000Y-34550000D01*
X78290000Y-36550000D02*
X78900000Y-36550000D01*
X81450000Y-37550000D02*
X81450000Y-38050000D01*
X80850000Y-33940000D02*
X80850000Y-34550000D01*
X78900000Y-34550000D02*
X78900000Y-38050000D01*
X80050000Y-33940000D02*
X80050000Y-33740000D01*
X78290000Y-33940000D02*
X78290000Y-38660000D01*
X84410000Y-33940000D02*
X78290000Y-33940000D01*
X80850000Y-34550000D02*
X78900000Y-34550000D01*
X84410000Y-36550000D02*
X83800000Y-36550000D01*
X83800000Y-34550000D02*
X81850000Y-34550000D01*
X78290000Y-35250000D02*
X78900000Y-35250000D01*
X81350000Y-38050000D02*
X81350000Y-37550000D01*
X81250000Y-37550000D02*
X81450000Y-37550000D01*
X84410000Y-38660000D02*
X84410000Y-33940000D01*
X80050000Y-33840000D02*
X79750000Y-33840000D01*
X81850000Y-34550000D02*
X81850000Y-33940000D01*
X77990000Y-33640000D02*
X77990000Y-34890000D01*
X79240000Y-33640000D02*
X77990000Y-33640000D01*
X78290000Y-38660000D02*
X84410000Y-38660000D01*
X84410000Y-35250000D02*
X83800000Y-35250000D01*
X80050000Y-33740000D02*
X79750000Y-33740000D01*
X81250000Y-38050000D02*
X81250000Y-37550000D01*
%TO.C,R10*%
X85955000Y-70545000D02*
X86285000Y-70545000D01*
X88695000Y-64005000D02*
X88695000Y-70545000D01*
X85955000Y-64005000D02*
X85955000Y-70545000D01*
X86285000Y-64005000D02*
X85955000Y-64005000D01*
X88365000Y-64005000D02*
X88695000Y-64005000D01*
X88695000Y-70545000D02*
X88365000Y-70545000D01*
D12*
%TO.C,U1*%
X78522500Y-61410000D02*
X78522500Y-41090000D01*
X78522500Y-41090000D02*
X98842500Y-41090000D01*
X98842500Y-41090000D02*
X98842500Y-61410000D01*
X98842500Y-61410000D02*
X78522500Y-61410000D01*
D13*
X77982500Y-42360000D02*
G75*
G03*
X77982500Y-42360000I-100000J0D01*
G01*
D11*
%TO.C,Q1*%
X72540000Y-26495000D02*
X82780000Y-26495000D01*
X75810000Y-26495000D02*
X75810000Y-28005000D01*
X79511000Y-26495000D02*
X79511000Y-28005000D01*
X72540000Y-26495000D02*
X72540000Y-31136000D01*
X72540000Y-31136000D02*
X82780000Y-31136000D01*
X82780000Y-26495000D02*
X82780000Y-31136000D01*
X72540000Y-28005000D02*
X82780000Y-28005000D01*
%TO.C,J1*%
X87050000Y-33640000D02*
X87050000Y-33840000D01*
X86200000Y-37950000D02*
X91100000Y-37950000D01*
X91100000Y-37950000D02*
X91100000Y-34450000D01*
X85590000Y-36450000D02*
X86200000Y-36450000D01*
X88750000Y-37450000D02*
X88750000Y-37950000D01*
X88150000Y-33840000D02*
X88150000Y-34450000D01*
X86200000Y-34450000D02*
X86200000Y-37950000D01*
X87350000Y-33840000D02*
X87350000Y-33640000D01*
X85590000Y-33840000D02*
X85590000Y-38560000D01*
X91710000Y-33840000D02*
X85590000Y-33840000D01*
X88150000Y-34450000D02*
X86200000Y-34450000D01*
X91710000Y-36450000D02*
X91100000Y-36450000D01*
X91100000Y-34450000D02*
X89150000Y-34450000D01*
X85590000Y-35150000D02*
X86200000Y-35150000D01*
X88650000Y-37950000D02*
X88650000Y-37450000D01*
X88550000Y-37450000D02*
X88750000Y-37450000D01*
X91710000Y-38560000D02*
X91710000Y-33840000D01*
X87350000Y-33740000D02*
X87050000Y-33740000D01*
X89150000Y-34450000D02*
X89150000Y-33840000D01*
X85290000Y-33540000D02*
X85290000Y-34790000D01*
X86540000Y-33540000D02*
X85290000Y-33540000D01*
X85590000Y-38560000D02*
X91710000Y-38560000D01*
X91710000Y-35150000D02*
X91100000Y-35150000D01*
X87350000Y-33640000D02*
X87050000Y-33640000D01*
X88550000Y-37950000D02*
X88550000Y-37450000D01*
%TO.C,R1*%
X84330000Y-64005000D02*
X84000000Y-64005000D01*
X81590000Y-70545000D02*
X81590000Y-64005000D01*
X84330000Y-70545000D02*
X84330000Y-64005000D01*
X84000000Y-70545000D02*
X84330000Y-70545000D01*
X81920000Y-70545000D02*
X81590000Y-70545000D01*
X81590000Y-64005000D02*
X81920000Y-64005000D01*
%TO.C,SW1*%
X63480000Y-34750000D02*
X65860000Y-34750000D01*
X58570000Y-34750000D02*
X58570000Y-22550000D01*
X70770000Y-34750000D02*
X68780000Y-34750000D01*
X70770000Y-22550000D02*
X70770000Y-34750000D01*
X58570000Y-22550000D02*
X70770000Y-22550000D01*
X60560000Y-34750000D02*
X58570000Y-34750000D01*
X67320000Y-28650000D02*
G75*
G03*
X67320000Y-28650000I-2650000J0D01*
G01*
%TO.C,J6*%
X83470000Y-75840000D02*
X83470000Y-76040000D01*
X82620000Y-80150000D02*
X87520000Y-80150000D01*
X87520000Y-80150000D02*
X87520000Y-76650000D01*
X82010000Y-78650000D02*
X82620000Y-78650000D01*
X85170000Y-79650000D02*
X85170000Y-80150000D01*
X84570000Y-76040000D02*
X84570000Y-76650000D01*
X82620000Y-76650000D02*
X82620000Y-80150000D01*
X83770000Y-76040000D02*
X83770000Y-75840000D01*
X82010000Y-76040000D02*
X82010000Y-80760000D01*
X88130000Y-76040000D02*
X82010000Y-76040000D01*
X84570000Y-76650000D02*
X82620000Y-76650000D01*
X88130000Y-78650000D02*
X87520000Y-78650000D01*
X87520000Y-76650000D02*
X85570000Y-76650000D01*
X82010000Y-77350000D02*
X82620000Y-77350000D01*
X85070000Y-80150000D02*
X85070000Y-79650000D01*
X84970000Y-79650000D02*
X85170000Y-79650000D01*
X88130000Y-80760000D02*
X88130000Y-76040000D01*
X83770000Y-75940000D02*
X83470000Y-75940000D01*
X85570000Y-76650000D02*
X85570000Y-76040000D01*
X81710000Y-75740000D02*
X81710000Y-76990000D01*
X82960000Y-75740000D02*
X81710000Y-75740000D01*
X82010000Y-80760000D02*
X88130000Y-80760000D01*
X88130000Y-77350000D02*
X87520000Y-77350000D01*
X83770000Y-75840000D02*
X83470000Y-75840000D01*
X84970000Y-80150000D02*
X84970000Y-79650000D01*
%TD*%
M02*
