%TF.GenerationSoftware,KiCad,Pcbnew,(6.0.6)*%
%TF.CreationDate,2022-06-23T08:54:45-07:00*%
%TF.ProjectId,KnightPCB,4b6e6967-6874-4504-9342-2e6b69636164,rev?*%
%TF.SameCoordinates,Original*%
%TF.FileFunction,Copper,L1,Top*%
%TF.FilePolarity,Positive*%
%FSLAX46Y46*%
G04 Gerber Fmt 4.6, Leading zero omitted, Abs format (unit mm)*
G04 Created by KiCad (PCBNEW (6.0.6)) date 2022-06-23 08:54:45*
%MOMM*%
%LPD*%
G01*
G04 APERTURE LIST*
G04 Aperture macros list*
%AMRoundRect*
0 Rectangle with rounded corners*
0 $1 Rounding radius*
0 $2 $3 $4 $5 $6 $7 $8 $9 X,Y pos of 4 corners*
0 Add a 4 corners polygon primitive as box body*
4,1,4,$2,$3,$4,$5,$6,$7,$8,$9,$2,$3,0*
0 Add four circle primitives for the rounded corners*
1,1,$1+$1,$2,$3*
1,1,$1+$1,$4,$5*
1,1,$1+$1,$6,$7*
1,1,$1+$1,$8,$9*
0 Add four rect primitives between the rounded corners*
20,1,$1+$1,$2,$3,$4,$5,0*
20,1,$1+$1,$4,$5,$6,$7,0*
20,1,$1+$1,$6,$7,$8,$9,0*
20,1,$1+$1,$8,$9,$2,$3,0*%
G04 Aperture macros list end*
%TA.AperFunction,ComponentPad*%
%ADD10C,1.600000*%
%TD*%
%TA.AperFunction,ComponentPad*%
%ADD11O,1.600000X1.600000*%
%TD*%
%TA.AperFunction,ComponentPad*%
%ADD12R,1.308000X1.308000*%
%TD*%
%TA.AperFunction,ComponentPad*%
%ADD13C,1.308000*%
%TD*%
%TA.AperFunction,ComponentPad*%
%ADD14R,1.905000X2.000000*%
%TD*%
%TA.AperFunction,ComponentPad*%
%ADD15O,1.905000X2.000000*%
%TD*%
%TA.AperFunction,ComponentPad*%
%ADD16R,1.778000X1.778000*%
%TD*%
%TA.AperFunction,ComponentPad*%
%ADD17C,1.778000*%
%TD*%
%TA.AperFunction,ComponentPad*%
%ADD18C,2.032000*%
%TD*%
%TA.AperFunction,ComponentPad*%
%ADD19C,2.540000*%
%TD*%
%TA.AperFunction,ComponentPad*%
%ADD20C,2.400000*%
%TD*%
%TA.AperFunction,ComponentPad*%
%ADD21C,1.700000*%
%TD*%
%TA.AperFunction,SMDPad,CuDef*%
%ADD22O,3.000000X1.700000*%
%TD*%
%TA.AperFunction,ComponentPad*%
%ADD23O,1.700000X1.700000*%
%TD*%
%TA.AperFunction,ComponentPad*%
%ADD24RoundRect,0.250000X0.350000X0.625000X-0.350000X0.625000X-0.350000X-0.625000X0.350000X-0.625000X0*%
%TD*%
%TA.AperFunction,ComponentPad*%
%ADD25O,1.200000X1.750000*%
%TD*%
%TA.AperFunction,ViaPad*%
%ADD26C,0.800000*%
%TD*%
%TA.AperFunction,Conductor*%
%ADD27C,0.250000*%
%TD*%
G04 APERTURE END LIST*
D10*
%TO.P,R10,1*%
%TO.N,Net-(R10-Pad1)*%
X107750000Y-59380000D03*
D11*
%TO.P,R10,2*%
%TO.N,Net-(A1-Pad16)*%
X107750000Y-67000000D03*
%TD*%
D10*
%TO.P,R2,1*%
%TO.N,Net-(A1-Pad23)*%
X96567500Y-36615000D03*
D11*
%TO.P,R2,2*%
%TO.N,GND*%
X96567500Y-44235000D03*
%TD*%
D12*
%TO.P,U1,1,VCC*%
%TO.N,Net-(A1-Pad2)*%
X113015500Y-61910000D03*
D13*
%TO.P,U1,2,RX*%
%TO.N,Net-(R10-Pad1)*%
X113015500Y-64450000D03*
%TO.P,U1,3,TX*%
%TO.N,Net-(A1-Pad17)*%
X113015500Y-66990000D03*
%TO.P,U1,4,DAC_R*%
%TO.N,unconnected-(U1-Pad4)*%
X113015500Y-69530000D03*
%TO.P,U1,5,DAC_L*%
%TO.N,unconnected-(U1-Pad5)*%
X113015500Y-72070000D03*
%TO.P,U1,6,SPK1*%
%TO.N,Net-(J1-Pad7)*%
X113015500Y-74610000D03*
%TO.P,U1,7,GND*%
%TO.N,GND*%
X113015500Y-77150000D03*
%TO.P,U1,8,SPK2*%
%TO.N,Net-(J1-Pad8)*%
X113015500Y-79690000D03*
%TO.P,U1,9,IO1*%
%TO.N,unconnected-(U1-Pad9)*%
X131049500Y-79690000D03*
%TO.P,U1,10,GND*%
%TO.N,GND*%
X131049500Y-77150000D03*
%TO.P,U1,11,IO2*%
%TO.N,unconnected-(U1-Pad11)*%
X131049500Y-74610000D03*
%TO.P,U1,12,ADKEY1*%
%TO.N,unconnected-(U1-Pad12)*%
X131049500Y-72070000D03*
%TO.P,U1,13,ADKEY2*%
%TO.N,unconnected-(U1-Pad13)*%
X131049500Y-69530000D03*
%TO.P,U1,14,USB+*%
%TO.N,unconnected-(U1-Pad14)*%
X131049500Y-66990000D03*
%TO.P,U1,15,USB-*%
%TO.N,unconnected-(U1-Pad15)*%
X131049500Y-64450000D03*
%TO.P,U1,16,BUSY*%
%TO.N,unconnected-(U1-Pad16)*%
X131049500Y-61910000D03*
%TD*%
D14*
%TO.P,Q1,1,G*%
%TO.N,Net-(A1-Pad24)*%
X86800000Y-77105000D03*
D15*
%TO.P,Q1,2,D*%
%TO.N,Net-(J1-Pad5)*%
X84260000Y-77105000D03*
%TO.P,Q1,3,S*%
%TO.N,GND*%
X81720000Y-77105000D03*
%TD*%
D10*
%TO.P,R3,1*%
%TO.N,Net-(A1-Pad22)*%
X91567500Y-36615000D03*
D11*
%TO.P,R3,2*%
%TO.N,GND*%
X91567500Y-44235000D03*
%TD*%
D10*
%TO.P,R4,1*%
%TO.N,Net-(A1-Pad21)*%
X86567500Y-36615000D03*
D11*
%TO.P,R4,2*%
%TO.N,GND*%
X86567500Y-44235000D03*
%TD*%
D16*
%TO.P,J1,1*%
%TO.N,Net-(J1-Pad1)*%
X123350000Y-43355000D03*
D17*
%TO.P,J1,2*%
%TO.N,Net-(J1-Pad2)*%
X124620000Y-40815000D03*
%TO.P,J1,3*%
%TO.N,Net-(J1-Pad3)*%
X125890000Y-43355000D03*
%TO.P,J1,4*%
%TO.N,Net-(J1-Pad4)*%
X127160000Y-40815000D03*
%TO.P,J1,5*%
%TO.N,Net-(J1-Pad5)*%
X128430000Y-43355000D03*
%TO.P,J1,6*%
%TO.N,Net-(A1-Pad15)*%
X129700000Y-40815000D03*
%TO.P,J1,7*%
%TO.N,Net-(J1-Pad7)*%
X130970000Y-43355000D03*
%TO.P,J1,8*%
%TO.N,Net-(J1-Pad8)*%
X132240000Y-40815000D03*
D18*
%TO.P,J1,9*%
%TO.N,unconnected-(J1-Pad9)*%
X134094200Y-53819800D03*
%TO.P,J1,10*%
%TO.N,unconnected-(J1-Pad10)*%
X131579600Y-53819800D03*
%TO.P,J1,11*%
%TO.N,unconnected-(J1-Pad11)*%
X123985000Y-53819800D03*
%TO.P,J1,12*%
%TO.N,unconnected-(J1-Pad12)*%
X121470400Y-53819800D03*
D19*
%TO.P,J1,SH*%
%TO.N,unconnected-(J1-PadSH)*%
X135669000Y-45818800D03*
X119921000Y-45818800D03*
%TD*%
D10*
%TO.P,R5,1*%
%TO.N,Net-(A1-Pad20)*%
X81567500Y-36615000D03*
D11*
%TO.P,R5,2*%
%TO.N,GND*%
X81567500Y-44235000D03*
%TD*%
D14*
%TO.P,Q5,1,G*%
%TO.N,Net-(A1-Pad20)*%
X86800000Y-49105000D03*
D15*
%TO.P,Q5,2,D*%
%TO.N,Net-(J1-Pad1)*%
X84260000Y-49105000D03*
%TO.P,Q5,3,S*%
%TO.N,GND*%
X81720000Y-49105000D03*
%TD*%
D14*
%TO.P,Q3,1,G*%
%TO.N,Net-(A1-Pad22)*%
X86800000Y-63105000D03*
D15*
%TO.P,Q3,2,D*%
%TO.N,Net-(J1-Pad3)*%
X84260000Y-63105000D03*
%TO.P,Q3,3,S*%
%TO.N,GND*%
X81720000Y-63105000D03*
%TD*%
D10*
%TO.P,R1,1*%
%TO.N,Net-(A1-Pad24)*%
X101567500Y-36615000D03*
D11*
%TO.P,R1,2*%
%TO.N,GND*%
X101567500Y-44235000D03*
%TD*%
D20*
%TO.P,SW1,1,A*%
%TO.N,+12V*%
X112850000Y-39200000D03*
%TO.P,SW1,2,B*%
%TO.N,Net-(A1-Pad15)*%
X107550000Y-39200000D03*
%TD*%
D21*
%TO.P,A1,1,D13~*%
%TO.N,unconnected-(A1-Pad1)*%
X76290000Y-77205000D03*
X75020000Y-77205000D03*
D22*
X75655000Y-77205000D03*
D23*
%TO.P,A1,2,+3V3*%
%TO.N,Net-(A1-Pad2)*%
X75020000Y-74665000D03*
D22*
X75655000Y-74665000D03*
D21*
X76290000Y-74665000D03*
D23*
%TO.P,A1,3,AREF*%
%TO.N,unconnected-(A1-Pad3)*%
X75020000Y-72125000D03*
D22*
X75655000Y-72125000D03*
D21*
X76290000Y-72125000D03*
D23*
%TO.P,A1,4,A0*%
%TO.N,unconnected-(A1-Pad4)*%
X75020000Y-69585000D03*
D21*
X76290000Y-69585000D03*
D22*
X75655000Y-69585000D03*
%TO.P,A1,5,A1*%
%TO.N,unconnected-(A1-Pad5)*%
X75655000Y-67045000D03*
D23*
X75020000Y-67045000D03*
D21*
X76290000Y-67045000D03*
D23*
%TO.P,A1,6,A2*%
%TO.N,unconnected-(A1-Pad6)*%
X75020000Y-64505000D03*
D21*
X76290000Y-64505000D03*
D22*
X75655000Y-64505000D03*
D23*
%TO.P,A1,7,A3*%
%TO.N,unconnected-(A1-Pad7)*%
X75020000Y-61965000D03*
D22*
X75655000Y-61965000D03*
D21*
X76290000Y-61965000D03*
D23*
%TO.P,A1,8,A4*%
%TO.N,unconnected-(A1-Pad8)*%
X75020000Y-59425000D03*
D21*
X76290000Y-59425000D03*
D22*
X75655000Y-59425000D03*
%TO.P,A1,9,A5*%
%TO.N,unconnected-(A1-Pad9)*%
X75655000Y-56885000D03*
D21*
X76290000Y-56885000D03*
D23*
X75020000Y-56885000D03*
%TO.P,A1,10,A6*%
%TO.N,unconnected-(A1-Pad10)*%
X75020000Y-54345000D03*
D22*
X75655000Y-54345000D03*
D21*
X76290000Y-54345000D03*
D23*
%TO.P,A1,11,A7*%
%TO.N,unconnected-(A1-Pad11)*%
X75020000Y-51805000D03*
D22*
X75655000Y-51805000D03*
D21*
X76290000Y-51805000D03*
%TO.P,A1,12,+5V*%
%TO.N,unconnected-(A1-Pad12)*%
X76290000Y-49265000D03*
D22*
X75655000Y-49265000D03*
D23*
X75020000Y-49265000D03*
%TO.P,A1,13,RESET*%
%TO.N,unconnected-(A1-Pad13)*%
X75020000Y-46725000D03*
D22*
X75655000Y-46725000D03*
D21*
X76290000Y-46725000D03*
D22*
%TO.P,A1,14,GND*%
%TO.N,GND*%
X75655000Y-44185000D03*
D23*
X75020000Y-44185000D03*
D21*
X76290000Y-44185000D03*
%TO.P,A1,15,VIN*%
%TO.N,Net-(A1-Pad15)*%
X76290000Y-41645000D03*
D23*
X75020000Y-41645000D03*
D22*
X75655000Y-41645000D03*
%TO.P,A1,16,TX*%
%TO.N,Net-(A1-Pad16)*%
X59145000Y-41645000D03*
D21*
X58510000Y-41645000D03*
X59780000Y-41645000D03*
%TO.P,A1,17,RX*%
%TO.N,Net-(A1-Pad17)*%
X58510000Y-44185000D03*
D22*
X59145000Y-44185000D03*
D23*
X59780000Y-44185000D03*
D22*
%TO.P,A1,18,RESET*%
%TO.N,unconnected-(A1-Pad18)*%
X59145000Y-46725000D03*
D21*
X58510000Y-46725000D03*
D23*
X59780000Y-46725000D03*
D21*
%TO.P,A1,19,GND*%
%TO.N,GND*%
X58510000Y-49265000D03*
D22*
X59145000Y-49265000D03*
D23*
X59780000Y-49265000D03*
D21*
%TO.P,A1,20,~D2*%
%TO.N,Net-(A1-Pad20)*%
X58510000Y-51805000D03*
D23*
X59780000Y-51805000D03*
D22*
X59145000Y-51805000D03*
D21*
%TO.P,A1,21,~D3*%
%TO.N,Net-(A1-Pad21)*%
X58510000Y-54345000D03*
D23*
X59780000Y-54345000D03*
D22*
X59145000Y-54345000D03*
%TO.P,A1,22,~D4*%
%TO.N,Net-(A1-Pad22)*%
X59145000Y-56885000D03*
D23*
X59780000Y-56885000D03*
D21*
X58510000Y-56885000D03*
D22*
%TO.P,A1,23,~D5*%
%TO.N,Net-(A1-Pad23)*%
X59145000Y-59425000D03*
D21*
X58510000Y-59425000D03*
D23*
X59780000Y-59425000D03*
D22*
%TO.P,A1,24,~D6*%
%TO.N,Net-(A1-Pad24)*%
X59145000Y-61965000D03*
D23*
X59780000Y-61965000D03*
D21*
X58510000Y-61965000D03*
%TO.P,A1,25,~D7*%
%TO.N,unconnected-(A1-Pad25)*%
X58510000Y-64505000D03*
D23*
X59780000Y-64505000D03*
D22*
X59145000Y-64505000D03*
D21*
%TO.P,A1,26,~D8*%
%TO.N,unconnected-(A1-Pad26)*%
X58510000Y-67045000D03*
D22*
X59145000Y-67045000D03*
D23*
X59780000Y-67045000D03*
%TO.P,A1,27,~D9*%
%TO.N,unconnected-(A1-Pad27)*%
X59780000Y-69585000D03*
D21*
X58510000Y-69585000D03*
D22*
X59145000Y-69585000D03*
%TO.P,A1,28,~D10*%
%TO.N,unconnected-(A1-Pad28)*%
X59145000Y-72125000D03*
D21*
X58510000Y-72125000D03*
D23*
X59780000Y-72125000D03*
D21*
%TO.P,A1,29,CIPI*%
%TO.N,unconnected-(A1-Pad29)*%
X58510000Y-74665000D03*
D23*
X59780000Y-74665000D03*
D22*
X59145000Y-74665000D03*
D23*
%TO.P,A1,30,CIPO*%
%TO.N,unconnected-(A1-Pad30)*%
X59780000Y-77205000D03*
D21*
X58510000Y-77205000D03*
D22*
X59145000Y-77205000D03*
%TD*%
D14*
%TO.P,Q4,1,G*%
%TO.N,Net-(A1-Pad21)*%
X86800000Y-56105000D03*
D15*
%TO.P,Q4,2,D*%
%TO.N,Net-(J1-Pad2)*%
X84260000Y-56105000D03*
%TO.P,Q4,3,S*%
%TO.N,GND*%
X81720000Y-56105000D03*
%TD*%
D14*
%TO.P,Q2,1,G*%
%TO.N,Net-(A1-Pad23)*%
X86800000Y-70105000D03*
D15*
%TO.P,Q2,2,D*%
%TO.N,Net-(J1-Pad4)*%
X84260000Y-70105000D03*
%TO.P,Q2,3,S*%
%TO.N,GND*%
X81720000Y-70105000D03*
%TD*%
D24*
%TO.P,J0+12v1,1,Pin_1*%
%TO.N,GND*%
X97500000Y-53600000D03*
D25*
%TO.P,J0+12v1,2,Pin_2*%
%TO.N,+12V*%
X95500000Y-53600000D03*
%TD*%
D26*
%TO.N,Net-(A1-Pad2)*%
X110150000Y-71050000D03*
%TO.N,Net-(A1-Pad16)*%
X104700000Y-74500000D03*
%TO.N,Net-(J1-Pad1)*%
X96350000Y-49074500D03*
X103400000Y-49100000D03*
%TO.N,Net-(J1-Pad2)*%
X112850000Y-48300000D03*
X91722746Y-55230649D03*
%TO.N,Net-(J1-Pad4)*%
X107500000Y-55050000D03*
X104300000Y-70250000D03*
X90700000Y-74900000D03*
%TO.N,Net-(A1-Pad17)*%
X104659064Y-75515535D03*
%TO.N,Net-(J1-Pad3)*%
X91000000Y-56900000D03*
%TO.N,Net-(J1-Pad5)*%
X103200000Y-72950000D03*
%TD*%
D27*
%TO.N,GND*%
X81720000Y-49105000D02*
X81720000Y-44387500D01*
X81720000Y-44387500D02*
X81567500Y-44235000D01*
%TO.N,Net-(A1-Pad2)*%
X113994500Y-69935516D02*
X113994500Y-62889000D01*
X110150000Y-71050000D02*
X112880016Y-71050000D01*
X112880016Y-71050000D02*
X113994500Y-69935516D01*
X113994500Y-62889000D02*
X113015500Y-61910000D01*
%TO.N,Net-(A1-Pad16)*%
X104650000Y-74500000D02*
X104700000Y-74500000D01*
X75550000Y-79950000D02*
X99200000Y-79950000D01*
X99200000Y-79950000D02*
X103950000Y-75200000D01*
X66700000Y-51950000D02*
X66700000Y-71850000D01*
X66700000Y-71850000D02*
X74800000Y-79950000D01*
X103950000Y-75200000D02*
X104650000Y-74500000D01*
X59780000Y-41645000D02*
X66700000Y-48565000D01*
X66700000Y-48565000D02*
X66700000Y-51950000D01*
X74800000Y-79950000D02*
X75550000Y-79950000D01*
%TO.N,Net-(A1-Pad15)*%
X75020000Y-41645000D02*
X75655000Y-41645000D01*
X75020000Y-41645000D02*
X76290000Y-41645000D01*
X107550000Y-39200000D02*
X78735000Y-39200000D01*
X78735000Y-39200000D02*
X76290000Y-41645000D01*
%TO.N,unconnected-(J1-PadSH)*%
X119921000Y-45818800D02*
X135669000Y-45818800D01*
%TO.N,GND*%
X91567500Y-44235000D02*
X96567500Y-44235000D01*
X86567500Y-44235000D02*
X91567500Y-44235000D01*
X81567500Y-44235000D02*
X86567500Y-44235000D01*
X101567500Y-44235000D02*
X101567500Y-55617500D01*
X97500000Y-53600000D02*
X97500000Y-45167500D01*
X81720000Y-77105000D02*
X81720000Y-70105000D01*
X81567500Y-44235000D02*
X76340000Y-44235000D01*
X55850000Y-46605000D02*
X55850000Y-40700000D01*
X103350000Y-57400000D02*
X103350000Y-70950000D01*
X81720000Y-70105000D02*
X81720000Y-63105000D01*
X69635000Y-38800000D02*
X75020000Y-44185000D01*
X58510000Y-49265000D02*
X55850000Y-46605000D01*
X81720000Y-63105000D02*
X81720000Y-56105000D01*
X57750000Y-38800000D02*
X69635000Y-38800000D01*
X96567500Y-44235000D02*
X101567500Y-44235000D01*
X97500000Y-45167500D02*
X96567500Y-44235000D01*
X109550000Y-77150000D02*
X113015500Y-77150000D01*
X76340000Y-44235000D02*
X76290000Y-44185000D01*
X81720000Y-56105000D02*
X81720000Y-49105000D01*
X76290000Y-44185000D02*
X75020000Y-44185000D01*
X55850000Y-40700000D02*
X57750000Y-38800000D01*
X113015500Y-77150000D02*
X131049500Y-77150000D01*
X101567500Y-55617500D02*
X103350000Y-57400000D01*
X103350000Y-70950000D02*
X109550000Y-77150000D01*
%TO.N,Net-(J1-Pad1)*%
X92120000Y-50430000D02*
X93450000Y-49100000D01*
X119095000Y-43355000D02*
X113800000Y-48650000D01*
X113800000Y-48650000D02*
X113350000Y-49100000D01*
X84260000Y-49105000D02*
X85585000Y-50430000D01*
X123350000Y-43355000D02*
X119095000Y-43355000D01*
X85585000Y-50430000D02*
X92120000Y-50430000D01*
X93450000Y-49100000D02*
X93475500Y-49074500D01*
X113350000Y-49100000D02*
X103400000Y-49100000D01*
X93475500Y-49074500D02*
X96350000Y-49074500D01*
%TO.N,Net-(J1-Pad2)*%
X120585000Y-40815000D02*
X114550000Y-46850000D01*
X124620000Y-40815000D02*
X120585000Y-40815000D01*
X91644046Y-55230649D02*
X91193397Y-54780000D01*
X114550000Y-46850000D02*
X113100000Y-48300000D01*
X113100000Y-48300000D02*
X112850000Y-48300000D01*
X85585000Y-54780000D02*
X84260000Y-56105000D01*
X91193397Y-54780000D02*
X85585000Y-54780000D01*
X91722746Y-55230649D02*
X91644046Y-55230649D01*
%TO.N,Net-(J1-Pad4)*%
X104400000Y-70150000D02*
X104300000Y-70250000D01*
X84260000Y-70167500D02*
X84260000Y-70105000D01*
X88992500Y-74900000D02*
X84260000Y-70167500D01*
X104400000Y-60950000D02*
X104400000Y-70150000D01*
X90700000Y-74900000D02*
X88992500Y-74900000D01*
X104400000Y-58150000D02*
X104400000Y-60950000D01*
X107500000Y-55050000D02*
X104400000Y-58150000D01*
%TO.N,Net-(A1-Pad17)*%
X59780000Y-44185000D02*
X61683604Y-44185000D01*
X61683604Y-44185000D02*
X65924302Y-48425698D01*
X102693198Y-77093198D02*
X104270861Y-75515535D01*
X71781802Y-77568198D02*
X74613604Y-80400000D01*
X74613604Y-80400000D02*
X89250000Y-80400000D01*
X66250000Y-66550000D02*
X66250000Y-72036396D01*
X66250000Y-72036396D02*
X71781802Y-77568198D01*
X99386396Y-80400000D02*
X102693198Y-77093198D01*
X66250000Y-48751396D02*
X66250000Y-66550000D01*
X89250000Y-80400000D02*
X99386396Y-80400000D01*
X65924302Y-48425698D02*
X66250000Y-48751396D01*
X104270861Y-75515535D02*
X104659064Y-75515535D01*
%TO.N,Net-(J1-Pad3)*%
X91000000Y-56900000D02*
X90465000Y-56900000D01*
X90465000Y-56900000D02*
X84260000Y-63105000D01*
%TO.N,Net-(J1-Pad5)*%
X101900000Y-74050000D02*
X103000000Y-72950000D01*
X85585000Y-75780000D02*
X100170000Y-75780000D01*
X100170000Y-75780000D02*
X101900000Y-74050000D01*
X84260000Y-77105000D02*
X85585000Y-75780000D01*
X103000000Y-72950000D02*
X103200000Y-72950000D01*
%TD*%
M02*
