%TF.GenerationSoftware,KiCad,Pcbnew,(6.0.6)*%
%TF.CreationDate,2022-06-23T08:54:45-07:00*%
%TF.ProjectId,KnightPCB,4b6e6967-6874-4504-9342-2e6b69636164,rev?*%
%TF.SameCoordinates,Original*%
%TF.FileFunction,Soldermask,Bot*%
%TF.FilePolarity,Negative*%
%FSLAX46Y46*%
G04 Gerber Fmt 4.6, Leading zero omitted, Abs format (unit mm)*
G04 Created by KiCad (PCBNEW (6.0.6)) date 2022-06-23 08:54:45*
%MOMM*%
%LPD*%
G01*
G04 APERTURE LIST*
G04 Aperture macros list*
%AMRoundRect*
0 Rectangle with rounded corners*
0 $1 Rounding radius*
0 $2 $3 $4 $5 $6 $7 $8 $9 X,Y pos of 4 corners*
0 Add a 4 corners polygon primitive as box body*
4,1,4,$2,$3,$4,$5,$6,$7,$8,$9,$2,$3,0*
0 Add four circle primitives for the rounded corners*
1,1,$1+$1,$2,$3*
1,1,$1+$1,$4,$5*
1,1,$1+$1,$6,$7*
1,1,$1+$1,$8,$9*
0 Add four rect primitives between the rounded corners*
20,1,$1+$1,$2,$3,$4,$5,0*
20,1,$1+$1,$4,$5,$6,$7,0*
20,1,$1+$1,$6,$7,$8,$9,0*
20,1,$1+$1,$8,$9,$2,$3,0*%
G04 Aperture macros list end*
%ADD10C,1.600000*%
%ADD11O,1.600000X1.600000*%
%ADD12R,1.308000X1.308000*%
%ADD13C,1.308000*%
%ADD14R,1.905000X2.000000*%
%ADD15O,1.905000X2.000000*%
%ADD16C,1.250000*%
%ADD17C,3.251200*%
%ADD18R,1.778000X1.778000*%
%ADD19C,1.778000*%
%ADD20C,2.032000*%
%ADD21C,2.540000*%
%ADD22C,2.400000*%
%ADD23C,1.700000*%
%ADD24O,1.700000X1.700000*%
%ADD25RoundRect,0.250000X0.350000X0.625000X-0.350000X0.625000X-0.350000X-0.625000X0.350000X-0.625000X0*%
%ADD26O,1.200000X1.750000*%
G04 APERTURE END LIST*
D10*
%TO.C,R10*%
X107750000Y-59380000D03*
D11*
X107750000Y-67000000D03*
%TD*%
D10*
%TO.C,R2*%
X96567500Y-36615000D03*
D11*
X96567500Y-44235000D03*
%TD*%
D12*
%TO.C,U1*%
X113015500Y-61910000D03*
D13*
X113015500Y-64450000D03*
X113015500Y-66990000D03*
X113015500Y-69530000D03*
X113015500Y-72070000D03*
X113015500Y-74610000D03*
X113015500Y-77150000D03*
X113015500Y-79690000D03*
X131049500Y-79690000D03*
X131049500Y-77150000D03*
X131049500Y-74610000D03*
X131049500Y-72070000D03*
X131049500Y-69530000D03*
X131049500Y-66990000D03*
X131049500Y-64450000D03*
X131049500Y-61910000D03*
%TD*%
D14*
%TO.C,Q1*%
X86800000Y-77105000D03*
D15*
X84260000Y-77105000D03*
X81720000Y-77105000D03*
%TD*%
D10*
%TO.C,R3*%
X91567500Y-36615000D03*
D11*
X91567500Y-44235000D03*
%TD*%
D10*
%TO.C,R4*%
X86567500Y-36615000D03*
D11*
X86567500Y-44235000D03*
%TD*%
D16*
%TO.C,H1*%
X57350000Y-36000000D03*
%TD*%
D17*
%TO.C,J1*%
X133510000Y-49705000D03*
X122080000Y-49705000D03*
D18*
X123350000Y-43355000D03*
D19*
X124620000Y-40815000D03*
X125890000Y-43355000D03*
X127160000Y-40815000D03*
X128430000Y-43355000D03*
X129700000Y-40815000D03*
X130970000Y-43355000D03*
X132240000Y-40815000D03*
D20*
X134094200Y-53819800D03*
X131579600Y-53819800D03*
X123985000Y-53819800D03*
X121470400Y-53819800D03*
D21*
X135669000Y-45818800D03*
X119921000Y-45818800D03*
%TD*%
D10*
%TO.C,R5*%
X81567500Y-36615000D03*
D11*
X81567500Y-44235000D03*
%TD*%
D14*
%TO.C,Q5*%
X86800000Y-49105000D03*
D15*
X84260000Y-49105000D03*
X81720000Y-49105000D03*
%TD*%
D16*
%TO.C,H4*%
X136050000Y-81000000D03*
%TD*%
D14*
%TO.C,Q3*%
X86800000Y-63105000D03*
D15*
X84260000Y-63105000D03*
X81720000Y-63105000D03*
%TD*%
D10*
%TO.C,R1*%
X101567500Y-36615000D03*
D11*
X101567500Y-44235000D03*
%TD*%
D22*
%TO.C,SW1*%
X112850000Y-39200000D03*
X107550000Y-39200000D03*
%TD*%
D23*
%TO.C,A1*%
X76290000Y-77205000D03*
X75020000Y-77205000D03*
D24*
X75020000Y-74665000D03*
D23*
X76290000Y-74665000D03*
D24*
X75020000Y-72125000D03*
D23*
X76290000Y-72125000D03*
D24*
X75020000Y-69585000D03*
D23*
X76290000Y-69585000D03*
D24*
X75020000Y-67045000D03*
D23*
X76290000Y-67045000D03*
D24*
X75020000Y-64505000D03*
D23*
X76290000Y-64505000D03*
D24*
X75020000Y-61965000D03*
D23*
X76290000Y-61965000D03*
D24*
X75020000Y-59425000D03*
D23*
X76290000Y-59425000D03*
X76290000Y-56885000D03*
D24*
X75020000Y-56885000D03*
X75020000Y-54345000D03*
D23*
X76290000Y-54345000D03*
D24*
X75020000Y-51805000D03*
D23*
X76290000Y-51805000D03*
X76290000Y-49265000D03*
D24*
X75020000Y-49265000D03*
X75020000Y-46725000D03*
D23*
X76290000Y-46725000D03*
D24*
X75020000Y-44185000D03*
D23*
X76290000Y-44185000D03*
X76290000Y-41645000D03*
D24*
X75020000Y-41645000D03*
D23*
X58510000Y-41645000D03*
X59780000Y-41645000D03*
X58510000Y-44185000D03*
D24*
X59780000Y-44185000D03*
D23*
X58510000Y-46725000D03*
D24*
X59780000Y-46725000D03*
D23*
X58510000Y-49265000D03*
D24*
X59780000Y-49265000D03*
D23*
X58510000Y-51805000D03*
D24*
X59780000Y-51805000D03*
D23*
X58510000Y-54345000D03*
D24*
X59780000Y-54345000D03*
X59780000Y-56885000D03*
D23*
X58510000Y-56885000D03*
X58510000Y-59425000D03*
D24*
X59780000Y-59425000D03*
X59780000Y-61965000D03*
D23*
X58510000Y-61965000D03*
X58510000Y-64505000D03*
D24*
X59780000Y-64505000D03*
D23*
X58510000Y-67045000D03*
D24*
X59780000Y-67045000D03*
X59780000Y-69585000D03*
D23*
X58510000Y-69585000D03*
X58510000Y-72125000D03*
D24*
X59780000Y-72125000D03*
D23*
X58510000Y-74665000D03*
D24*
X59780000Y-74665000D03*
X59780000Y-77205000D03*
D23*
X58510000Y-77205000D03*
%TD*%
D14*
%TO.C,Q4*%
X86800000Y-56105000D03*
D15*
X84260000Y-56105000D03*
X81720000Y-56105000D03*
%TD*%
D16*
%TO.C,H2*%
X136050000Y-36000000D03*
%TD*%
D14*
%TO.C,Q2*%
X86800000Y-70105000D03*
D15*
X84260000Y-70105000D03*
X81720000Y-70105000D03*
%TD*%
D16*
%TO.C,H3*%
X57350000Y-81000000D03*
%TD*%
D25*
%TO.C,J0+12v1*%
X97500000Y-53600000D03*
D26*
X95500000Y-53600000D03*
%TD*%
M02*
