M48
; DRILL file {KiCad (6.0.6)} date Thu Jun 23 08:54:48 2022
; FORMAT={-:-/ absolute / inch / decimal}
; #@! TF.CreationDate,2022-06-23T08:54:48-07:00
; #@! TF.GenerationSoftware,Kicad,Pcbnew,(6.0.6)
; #@! TF.FileFunction,MixedPlating,1,2
FMAT,2
INCH
; #@! TA.AperFunction,Plated,PTH,ViaDrill
T1C0.0157
; #@! TA.AperFunction,Plated,PTH,ComponentDrill
T2C0.0295
; #@! TA.AperFunction,Plated,PTH,ComponentDrill
T3C0.0315
; #@! TA.AperFunction,Plated,PTH,ComponentDrill
T4C0.0350
; #@! TA.AperFunction,Plated,PTH,ComponentDrill
T5C0.0394
; #@! TA.AperFunction,Plated,PTH,ComponentDrill
T6C0.0400
; #@! TA.AperFunction,Plated,PTH,ComponentDrill
T7C0.0433
; #@! TA.AperFunction,Plated,PTH,ComponentDrill
T8C0.0472
; #@! TA.AperFunction,Plated,PTH,ComponentDrill
T9C0.0650
; #@! TA.AperFunction,NonPlated,NPTH,ComponentDrill
T10C0.0492
; #@! TA.AperFunction,NonPlated,NPTH,ComponentDrill
T11C0.1280
%
G90
G05
T1
X3.5709Y-2.9488
X3.5827Y-2.2402
X3.6111Y-2.1744
X3.7933Y-1.9321
X4.063Y-2.872
X4.0709Y-1.9331
X4.1063Y-2.7657
X4.1204Y-2.9731
X4.122Y-2.9331
X4.2323Y-2.1673
X4.3366Y-2.7972
X4.4429Y-1.9016
T2
X3.7598Y-2.1102
X3.8386Y-2.1102
T3
X3.2113Y-1.4415
X3.2113Y-1.7415
X3.4082Y-1.4415
X3.4082Y-1.7415
X3.605Y-1.4415
X3.605Y-1.7415
X3.8019Y-1.4415
X3.8019Y-1.7415
X3.9987Y-1.4415
X3.9987Y-1.7415
X4.2421Y-2.3378
X4.2421Y-2.6378
X4.4494Y-2.4374
X4.4494Y-2.5374
X4.4494Y-2.6374
X4.4494Y-2.7374
X4.4494Y-2.8374
X4.4494Y-2.9374
X4.4494Y-3.0374
X4.4494Y-3.1374
X5.1594Y-2.4374
X5.1594Y-2.5374
X5.1594Y-2.6374
X5.1594Y-2.7374
X5.1594Y-2.8374
X5.1594Y-2.9374
X5.1594Y-3.0374
X5.1594Y-3.1374
T4
X4.8563Y-1.7069
X4.9063Y-1.6069
X4.9563Y-1.7069
X5.0063Y-1.6069
X5.0563Y-1.7069
X5.1063Y-1.6069
X5.1563Y-1.7069
X5.2063Y-1.6069
T5
X2.3035Y-1.6396
X2.3035Y-1.7396
X2.3035Y-1.8396
X2.3035Y-1.9396
X2.3035Y-2.0396
X2.3035Y-2.1396
X2.3035Y-2.2396
X2.3035Y-2.3396
X2.3035Y-2.4396
X2.3035Y-2.5396
X2.3035Y-2.6396
X2.3035Y-2.7396
X2.3035Y-2.8396
X2.3035Y-2.9396
X2.3035Y-3.0396
X2.3535Y-1.6396
X2.3535Y-1.7396
X2.3535Y-1.8396
X2.3535Y-1.9396
X2.3535Y-2.0396
X2.3535Y-2.1396
X2.3535Y-2.2396
X2.3535Y-2.3396
X2.3535Y-2.4396
X2.3535Y-2.5396
X2.3535Y-2.6396
X2.3535Y-2.7396
X2.3535Y-2.8396
X2.3535Y-2.9396
X2.3535Y-3.0396
X2.9535Y-1.6396
X2.9535Y-1.7396
X2.9535Y-1.8396
X2.9535Y-1.9396
X2.9535Y-2.0396
X2.9535Y-2.1396
X2.9535Y-2.2396
X2.9535Y-2.3396
X2.9535Y-2.4396
X2.9535Y-2.5396
X2.9535Y-2.6396
X2.9535Y-2.7396
X2.9535Y-2.8396
X2.9535Y-2.9396
X2.9535Y-3.0396
X3.0035Y-1.6396
X3.0035Y-1.7396
X3.0035Y-1.8396
X3.0035Y-1.9396
X3.0035Y-2.0396
X3.0035Y-2.1396
X3.0035Y-2.2396
X3.0035Y-2.3396
X3.0035Y-2.4396
X3.0035Y-2.5396
X3.0035Y-2.6396
X3.0035Y-2.7396
X3.0035Y-2.8396
X3.0035Y-2.9396
X3.0035Y-3.0396
T6
X4.7823Y-2.1189
X4.8813Y-2.1189
X5.1803Y-2.1189
X5.2793Y-2.1189
T7
X3.2173Y-1.9333
X3.2173Y-2.2089
X3.2173Y-2.4844
X3.2173Y-2.76
X3.2173Y-3.0356
X3.3173Y-1.9333
X3.3173Y-2.2089
X3.3173Y-2.4844
X3.3173Y-2.76
X3.3173Y-3.0356
X3.4173Y-1.9333
X3.4173Y-2.2089
X3.4173Y-2.4844
X3.4173Y-2.76
X3.4173Y-3.0356
T8
X4.2343Y-1.5433
X4.4429Y-1.5433
T9
X4.7213Y-1.8039
X5.3413Y-1.8039
T10
X2.2579Y-1.4173
X2.2579Y-3.189
X5.3563Y-1.4173
X5.3563Y-3.189
T11
X4.8063Y-1.9569
X5.2563Y-1.9569
T0
M30
